<svg width="299" height="272" viewBox="0 0 299 272" fill="none" xmlns="http://www.w3.org/2000/svg">
<path opacity="0.7" d="M277.204 131.388C268.585 89.6161 241.244 54.121 203.001 35.2322C199.005 33.2349 194.724 31.2376 190.215 29.2403C133.706 4.13124 101.171 25.8163 84.6178 50.9253C68.0647 76.0344 47.5161 119.405 34.3877 140.519C21.2594 161.633 4.13555 206.145 37.2417 236.96C70.3479 267.776 101.742 257.504 123.432 248.944C145.122 240.384 166.812 247.803 206.768 247.803C246.724 247.803 279.83 216.987 282.113 178.753C282.912 164.772 280.572 147.595 277.204 131.388Z" fill="#DFE5EE"/>
<path d="M217.936 139.068C210.121 111.293 184.607 90.9466 154.312 90.9466C128.411 90.9466 105.997 105.868 95.1455 127.571" stroke="#131313" stroke-miterlimit="10" stroke-linecap="round" stroke-linejoin="round"/>
<path d="M220.39 155.733C220.326 152.568 220.068 149.468 219.551 146.432" stroke="#131313" stroke-miterlimit="10" stroke-linecap="round" stroke-linejoin="round"/>
<path d="M98.1167 191.97C109.808 210.702 130.607 223.233 154.312 223.233C188.353 223.233 216.322 197.525 220.003 164.518" stroke="#131313" stroke-miterlimit="10" stroke-linecap="round" stroke-linejoin="round"/>
<path d="M93.918 184.089C94.5639 185.51 95.2744 186.931 95.9849 188.288" stroke="#131313" stroke-miterlimit="10" stroke-linecap="round" stroke-linejoin="round"/>
<path d="M92.7554 132.997C89.8487 140.489 88.2339 148.563 88.2339 157.09C88.2339 164.905 89.5903 172.334 92.0449 179.31" stroke="#131313" stroke-miterlimit="10" stroke-linecap="round" stroke-linejoin="round"/>
<path d="M199.979 170.46C200.625 168.329 201.077 166.068 201.4 163.807L198.235 163.484C197.331 163.42 196.685 162.58 196.814 161.74C196.879 160.836 197.718 160.19 198.558 160.319L201.723 160.642C201.788 159.48 201.852 158.317 201.852 157.154C201.852 152.633 201.206 148.24 200.044 144.106L196.814 145.14C196.62 145.205 196.491 145.205 196.297 145.205C195.587 145.205 195.006 144.752 194.747 144.106C194.489 143.267 194.941 142.362 195.781 142.04L199.01 141.006C197.073 135.645 194.23 130.736 190.613 126.537L187.965 128.927C187.642 129.186 187.254 129.315 186.867 129.315C186.415 129.315 185.963 129.121 185.64 128.798C185.058 128.152 185.123 127.119 185.769 126.537L188.417 124.147C184.542 120.078 179.891 116.719 174.788 114.265L173.238 117.688C172.979 118.269 172.398 118.657 171.752 118.657C171.558 118.657 171.3 118.592 171.106 118.528C170.267 118.14 169.944 117.236 170.267 116.396L171.752 113.037C166.649 110.97 161.094 109.808 155.216 109.679V113.425C155.216 114.329 154.506 115.04 153.602 115.04C152.697 115.04 151.987 114.329 151.987 113.425V109.679C146.173 109.937 140.618 111.229 135.58 113.36L137.066 116.784C137.453 117.623 137.066 118.528 136.226 118.915C136.032 118.98 135.774 119.044 135.58 119.044C134.934 119.044 134.353 118.657 134.095 118.076L132.609 114.717C127.571 117.3 122.985 120.724 119.174 124.793L121.822 127.183C122.468 127.765 122.532 128.798 121.951 129.444C121.628 129.767 121.176 129.961 120.724 129.961C120.336 129.961 119.949 129.831 119.626 129.573L117.042 127.248C113.554 131.575 110.777 136.485 108.968 141.91L112.133 142.944C112.973 143.202 113.425 144.106 113.167 145.011C112.973 145.721 112.327 146.109 111.616 146.109C111.423 146.109 111.293 146.109 111.1 146.044L107.999 145.011C106.966 148.886 106.384 153.02 106.384 157.219C106.384 158.704 106.449 160.125 106.578 161.547L109.679 161.224C110.583 161.094 111.358 161.805 111.423 162.645C111.487 163.549 110.841 164.324 110.001 164.389L106.966 164.712C107.87 170.331 109.743 175.563 112.391 180.343L114.911 178.922C115.686 178.47 116.655 178.728 117.107 179.503C117.559 180.278 117.3 181.247 116.525 181.699L114.071 183.121C117.107 187.771 120.853 191.841 125.31 195.135L126.925 192.939C127.442 192.228 128.475 192.034 129.186 192.551C129.896 193.068 130.09 194.101 129.573 194.812L128.023 196.943C132.544 199.915 137.647 202.111 143.073 203.403L143.59 200.819C143.784 199.915 144.623 199.398 145.528 199.592C146.432 199.785 146.949 200.625 146.755 201.529L146.238 204.049C148.757 204.501 151.405 204.695 154.054 204.695C156.96 204.695 159.867 204.436 162.645 203.919L162.063 201.336C161.869 200.431 162.451 199.592 163.291 199.398C164.13 199.204 165.035 199.785 165.228 200.625L165.745 203.209C171.171 201.852 176.209 199.527 180.731 196.491L179.116 194.23C178.599 193.52 178.728 192.486 179.503 191.97C180.214 191.453 181.247 191.582 181.764 192.357L183.379 194.553C187.707 191.13 191.453 186.996 194.424 182.345L191.905 180.86C191.13 180.408 190.872 179.439 191.324 178.664C191.776 177.889 192.745 177.63 193.52 178.082L196.104 179.568C197.137 177.63 198.041 175.628 198.817 173.496" stroke="#131313" stroke-miterlimit="10" stroke-linecap="round" stroke-linejoin="round"/>
<path d="M126.666 141.652C124.083 146.238 122.662 151.47 122.662 157.09C122.662 174.594 136.807 188.74 154.312 188.74C171.817 188.74 185.963 174.594 185.963 157.09C185.963 139.585 171.817 125.439 154.312 125.439C144.3 125.439 135.386 130.09 129.638 137.324" stroke="#131313" stroke-miterlimit="10" stroke-linecap="round" stroke-linejoin="round"/>
<path d="M120.014 48.7675C124.987 34.6217 138.487 24.4807 154.312 24.4807C174.401 24.4807 190.678 40.8226 190.678 60.8464V78.4156" stroke="#131313" stroke-miterlimit="10" stroke-linecap="round" stroke-linejoin="round"/>
<path d="M202.305 104.382V60.8464C202.305 34.3633 180.795 12.8539 154.312 12.8539C127.829 12.8539 106.32 34.3633 106.32 60.8464V111.681C109.808 107.999 113.683 104.705 117.947 101.927V60.8464C117.947 58.1981 118.205 55.5498 118.786 53.0952" stroke="#131313" stroke-miterlimit="10" stroke-linecap="round" stroke-linejoin="round"/>
<path d="M190.678 84.8103V101.863C194.941 104.64 198.817 107.935 202.305 111.616V107.03" stroke="#131313" stroke-miterlimit="10" stroke-linecap="round" stroke-linejoin="round"/>
<path d="M199.075 257.661H109.549C104.705 257.661 100.7 253.72 100.7 248.811C100.7 243.967 104.64 239.962 109.549 239.962H199.14C203.984 239.962 207.989 243.902 207.989 248.811C207.924 253.72 203.984 257.661 199.075 257.661Z" fill="white" stroke="white" stroke-miterlimit="10" stroke-linecap="round" stroke-linejoin="round"/>
<path d="M112.65 247.843L111.81 242.611H114.652L113.813 247.843L118.528 245.453L119.432 248.166L114.2 249.07L117.946 252.816L115.686 254.496L113.231 249.78L110.777 254.496L108.516 252.816L112.262 249.07L107.03 248.166L107.935 245.453L112.65 247.843Z" fill="#4535EA"/>
<path d="M133.255 247.843L132.415 242.611H135.257L134.417 247.843L139.133 245.453L140.037 248.166L134.805 249.07L138.551 252.816L136.291 254.496L133.836 249.78L131.382 254.496L129.121 252.816L132.867 249.07L127.635 248.166L128.54 245.453L133.255 247.843Z" fill="#4535EA"/>
<path d="M153.86 247.843L153.021 242.611H155.863L155.023 247.843L159.738 245.453L160.643 248.166L155.411 249.07L159.157 252.816L156.896 254.496L154.442 249.78L151.987 254.496L149.726 252.816L153.473 249.07L148.241 248.166L149.145 245.453L153.86 247.843Z" fill="#4535EA"/>
<path d="M174.4 247.843L173.561 242.611H176.403L175.563 247.843L180.278 245.453L181.183 248.166L175.951 249.07L179.697 252.816L177.436 254.496L174.982 249.78L172.527 254.496L170.266 252.816L174.013 249.07L168.781 248.166L169.685 245.453L174.4 247.843Z" fill="#4535EA"/>
<path d="M195.006 247.843L194.166 242.611H197.008L196.168 247.843L200.884 245.453L201.788 248.166L196.556 249.07L200.302 252.816L198.042 254.496L195.587 249.78L193.133 254.496L190.872 252.816L194.618 249.07L189.386 248.166L190.291 245.453L195.006 247.843Z" fill="#4535EA"/>
<path d="M115.04 153.731C115.04 153.731 115.686 157.283 116.461 158.575C117.236 159.867 119.561 161.288 119.69 164.066C119.82 166.779 119.69 169.556 119.69 169.556C119.69 169.556 126.666 173.755 132.286 176.661C137.906 179.568 142.75 181.054 142.75 181.054L141.135 194.489C141.135 194.489 124.018 182.539 119.949 178.857C115.879 175.176 112.198 170.977 111.552 170.783C110.906 170.59 105.738 163.549 105.609 162.709C105.48 161.87 108.064 160.255 108.839 160.448C109.614 160.642 110.647 158.64 111.1 157.09C111.552 155.539 111.616 153.537 112.714 153.537C113.812 153.537 115.04 153.731 115.04 153.731Z" fill="#F9B587" stroke="#131313" stroke-miterlimit="10" stroke-linecap="round" stroke-linejoin="round"/>
<path d="M91.5924 153.925L111.422 174.078C112.004 174.659 112.973 174.788 113.683 174.336L118.786 170.977C119.69 170.396 119.884 169.104 119.109 168.264L101.023 148.886C100.506 148.37 99.7957 148.176 99.0852 148.434L92.2383 151.083C91.0111 151.47 90.6881 153.02 91.5924 153.925Z" fill="#131313" stroke="#131313" stroke-miterlimit="10" stroke-linecap="round" stroke-linejoin="round"/>
<path d="M132.673 219.551C139.456 221.876 146.755 223.168 154.312 223.168C165.034 223.168 175.175 220.584 184.089 216.063C184.477 210.314 184.8 203.403 184.8 200.884C184.8 196.491 188.546 180.343 190.484 171.688C192.422 162.968 189.838 153.279 187.577 144.107C185.316 134.934 176.467 128.604 176.467 128.604L154.506 139.068C154.506 139.068 138.035 153.795 136.549 161.676C135.128 169.556 140.941 176.855 140.941 178.599C140.877 180.085 134.805 208.699 132.673 219.551Z" fill="#4535EA" stroke="#131313" stroke-miterlimit="10" stroke-linecap="round" stroke-linejoin="round"/>
<path d="M176.79 178.728C176.79 178.728 185.123 172.592 185.768 172.204" stroke="#131313" stroke-miterlimit="10" stroke-linecap="round" stroke-linejoin="round"/>
<path d="M175.111 181.57L184.283 179.568" stroke="#131313" stroke-miterlimit="10" stroke-linecap="round" stroke-linejoin="round"/>
<path d="M151.018 126.925L152.956 130.994L170.396 119.367L165.745 112.908L150.243 125.827L151.018 126.925Z" fill="#131313" stroke="#131313" stroke-miterlimit="10" stroke-linecap="round" stroke-linejoin="round"/>
<path d="M168.264 117.688L151.405 129.509C150.436 130.155 150.113 131.446 150.565 132.48L153.989 140.748C154.506 141.975 155.991 142.427 157.089 141.781L176.661 129.832C177.759 129.186 178.017 127.7 177.242 126.731L170.848 118.14C170.266 117.301 169.104 117.107 168.264 117.688Z" fill="#4535EA" stroke="#131313" stroke-miterlimit="10" stroke-linecap="round" stroke-linejoin="round"/>
<path d="M126.021 91.7864C126.021 91.7864 126.602 99.5375 128.217 102.896C129.896 106.255 132.674 109.549 131.834 110.97C130.994 112.327 129.638 115.686 131.575 117.042C133.513 118.399 135.193 118.14 135.193 118.14C135.193 118.14 139.973 129.767 143.267 130.413C149.016 131.576 157.929 121.176 158.769 120.918C159.609 120.659 166.843 115.621 167.36 109.291C167.941 102.896 164.582 93.7887 161.805 92.6261C159.027 91.528 153.214 92.8844 148.24 90.9467C143.267 89.0089 127.183 84.2936 126.021 91.7864Z" fill="#F9B587" stroke="#131313" stroke-miterlimit="10" stroke-linecap="round" stroke-linejoin="round"/>
<path d="M134.934 105.609L135.774 108.128C135.774 108.128 138.81 108.968 140.747 106.191" stroke="#131313" stroke-miterlimit="10" stroke-linecap="round" stroke-linejoin="round"/>
<path d="M132.867 101.798C132.867 101.798 134.288 99.3437 139.004 100.636" stroke="#131313" stroke-miterlimit="10" stroke-linecap="round" stroke-linejoin="round"/>
<path d="M137.324 119.82C137.324 119.82 139.004 119.69 139.908 118.915" stroke="#131313" stroke-miterlimit="10" stroke-linecap="round" stroke-linejoin="round"/>
<path d="M124.082 75.7028C124.082 75.7028 118.527 81.5161 119.367 86.2314C120.207 90.9467 126.279 95.4036 129.637 95.4036C132.996 95.4036 134.934 94.5638 139.068 94.5638C143.202 94.5638 147.659 97.5997 149.338 99.2791C151.018 100.959 153.214 103.155 154.635 100.959C155.991 98.7624 155.216 96.8246 160.707 97.3413C166.262 97.9227 165.163 106.514 163.226 110.647C161.288 114.781 159.867 117.042 157.671 117.042C155.475 117.042 152.374 115.686 154.054 118.14C155.733 120.659 160.707 126.473 172.075 124.212C183.443 122.016 187.06 112.585 187.06 107.03C187.06 101.475 183.185 93.1428 180.407 87.3295C177.63 81.5161 172.075 69.3081 158.51 65.4325C144.881 61.5569 129.637 66.5306 124.082 75.7028Z" fill="#131313" stroke="#131313" stroke-miterlimit="10" stroke-linecap="round" stroke-linejoin="round"/>
<path d="M154.635 102.961C154.635 102.961 154.376 97.4705 157.606 96.437C160.9 95.4036 164.13 97.3413 164.259 101.281C164.388 105.222 163.872 109.226 162.451 110.647C161.029 112.068 157.089 110.906 157.089 110.906" fill="#F9B587"/>
<path d="M154.635 102.961C154.635 102.961 154.376 97.4705 157.606 96.437C160.9 95.4036 164.13 97.3413 164.259 101.281C164.388 105.222 163.872 109.226 162.451 110.647C161.029 112.068 157.089 110.906 157.089 110.906" stroke="#131313" stroke-miterlimit="10" stroke-linecap="round" stroke-linejoin="round"/>
<path d="M166.714 143.073C166.714 143.073 158.769 148.886 157.154 155.992C155.539 163.097 151.663 183.25 151.663 183.25C151.663 183.25 149.08 182.927 149.08 183.573C149.08 184.219 148.434 186.027 148.434 186.027C148.434 186.027 146.367 186.027 146.173 186.802C145.979 187.577 128.733 178.728 124.341 175.822C119.948 172.915 114.523 168.846 113.489 167.554C112.456 166.262 109.097 162.257 107.353 160.642C105.609 159.027 102.056 156.767 101.41 156.25C100.764 155.733 99.7955 151.599 98.3098 152.245C96.8242 152.891 97.1472 155.798 97.7931 156.896C98.439 157.994 101.023 162.709 101.023 162.709C101.023 162.709 95.5324 163.226 94.4343 164.001C93.3362 164.776 92.6257 167.554 93.9175 168.523C95.2094 169.492 98.1161 169.814 98.1161 169.814C98.1161 169.814 98.8912 173.819 100.571 174.982C102.25 176.145 104.963 177.243 106.384 177.889C107.805 178.534 112.843 178.664 112.843 178.664C112.843 178.664 119.625 186.286 124.341 190.936C129.056 195.587 147.465 208.893 150.178 209.797C152.891 210.702 156.12 208.635 157.283 207.085C158.446 205.534 177.307 178.793 181.828 169.944" fill="#F9B587"/>
<path d="M166.714 143.073C166.714 143.073 158.769 148.886 157.154 155.992C155.539 163.097 151.663 183.25 151.663 183.25C151.663 183.25 149.08 182.927 149.08 183.573C149.08 184.219 148.434 186.027 148.434 186.027C148.434 186.027 146.367 186.027 146.173 186.802C145.979 187.577 128.733 178.728 124.341 175.822C119.948 172.915 114.523 168.846 113.489 167.554C112.456 166.262 109.097 162.257 107.353 160.642C105.609 159.027 102.056 156.767 101.41 156.25C100.764 155.733 99.7955 151.599 98.3098 152.245C96.8242 152.891 97.1472 155.798 97.7931 156.896C98.439 157.994 101.023 162.709 101.023 162.709C101.023 162.709 95.5324 163.226 94.4343 164.001C93.3362 164.776 92.6257 167.554 93.9175 168.523C95.2094 169.492 98.1161 169.814 98.1161 169.814C98.1161 169.814 98.8912 173.819 100.571 174.982C102.25 176.145 104.963 177.243 106.384 177.889C107.805 178.534 112.843 178.664 112.843 178.664C112.843 178.664 119.625 186.286 124.341 190.936C129.056 195.587 147.465 208.893 150.178 209.797C152.891 210.702 156.12 208.635 157.283 207.085C158.446 205.534 177.307 178.793 181.828 169.944" stroke="#131313" stroke-miterlimit="10" stroke-linecap="round" stroke-linejoin="round"/>
<path d="M166.713 143.073C166.713 143.073 158.769 148.886 157.154 155.992C155.539 163.097 151.663 183.25 151.663 183.25C151.663 183.25 149.08 182.927 149.08 183.573C149.08 184.219 148.434 186.027 148.434 186.027C148.434 186.027 146.367 186.027 146.173 186.802C146.108 187.19 142.233 185.446 137.711 183.121L130.542 196.233C137.776 201.917 148.175 209.151 150.178 209.862C152.891 210.831 156.12 208.699 157.283 207.149C158.381 205.534 178.211 178.341 183.12 169.039" fill="#4535EA"/>
<path d="M166.713 143.073C166.713 143.073 158.769 148.886 157.154 155.992C155.539 163.097 151.663 183.25 151.663 183.25C151.663 183.25 149.08 182.927 149.08 183.573C149.08 184.219 148.434 186.027 148.434 186.027C148.434 186.027 146.367 186.027 146.173 186.802C146.108 187.19 142.233 185.446 137.711 183.121L130.542 196.233C137.776 201.917 148.175 209.151 150.178 209.862C152.891 210.831 156.12 208.699 157.283 207.149C158.381 205.534 178.211 178.341 183.12 169.039" stroke="#131313" stroke-miterlimit="10" stroke-linecap="round" stroke-linejoin="round"/>
<path d="M114.523 155.346C114.523 155.346 112.456 161.03 111.423 161.482C110.389 161.934 109.485 161.805 108.839 160.319C108.193 158.834 110.26 154.377 110.26 154.377C110.26 154.377 110.906 152.31 112.844 152.31C114.781 152.31 114.911 153.731 114.911 153.731L114.523 155.346Z" fill="#F9B587" stroke="#131313" stroke-miterlimit="10" stroke-linecap="round" stroke-linejoin="round"/>
</svg>
