<svg width="380" height="322" viewBox="0 0 380 322" fill="none" xmlns="http://www.w3.org/2000/svg">
<g clip-path="url(#clip0_37_286)">
<path opacity="0.1" d="M338.158 111.16C330.043 79.7458 300.555 81.7317 272.691 87.509C257.632 90.6684 236.621 95.0014 214.618 88.5922C167.366 74.7809 112.99 71.3507 86.2077 88.5922C59.4256 105.834 43.2841 126.596 51.0392 155.573C58.7943 184.549 78.3624 210.637 61.6799 226.164C44.9975 241.69 45.268 300.456 113.892 305.06C182.515 309.663 175.662 243.766 221.02 246.745C266.379 249.724 359.35 294.408 363.317 262.091C367.285 229.774 316.787 206.665 334.912 152.955C338.519 142.393 341.856 125.513 338.158 111.16Z" fill="#131313"/>
<path opacity="0.1" d="M180.441 59.7961C180.441 59.7961 182.155 48.5124 187.114 48.9637C188.467 49.054 189.369 50.4983 190 51.9426C190.361 52.8453 191.713 52.755 191.984 51.8523C193.246 47.2486 195.952 40.2978 200.1 40.2978C204.338 40.2978 204.518 48.3318 204.248 53.1161C204.158 53.8383 205.15 54.1994 205.6 53.5675C206.773 51.9426 208.396 50.3178 210.38 50.7691C214.257 51.6718 213.265 59.7058 213.265 59.7058H180.441V59.7961Z" fill="#131313"/>
<path opacity="0.1" d="M0 165.683C0 165.683 1.71334 154.399 6.67299 154.85C8.02563 154.941 8.92738 156.385 9.55861 157.829C9.91932 158.732 11.2719 158.642 11.5425 157.739C12.8049 153.135 15.5102 146.184 19.6583 146.184C23.8965 146.184 24.0769 154.219 23.8064 159.003C23.7162 159.725 24.7081 160.086 25.159 159.454C26.3313 157.829 27.9544 156.204 29.9383 156.656C33.8158 157.558 32.8239 165.593 32.8239 165.593H0V165.683Z" fill="#131313"/>
<path opacity="0.1" d="M347.176 120.728C347.176 120.728 348.89 109.445 353.849 109.896C355.202 109.986 356.104 111.431 356.735 112.875C357.096 113.778 358.448 113.687 358.719 112.785C359.981 108.181 362.686 101.23 366.835 101.23C371.073 101.23 371.253 109.264 370.983 114.048C370.892 114.771 371.884 115.132 372.335 114.5C373.508 112.875 375.131 111.25 377.115 111.701C380.992 112.604 380 120.638 380 120.638H347.176V120.728Z" fill="#131313"/>
<path d="M242.933 149.886C242.933 149.886 237.793 154.399 230.398 157.197C230.398 157.197 226.16 159.906 220.659 162.975C214.257 166.676 209.297 169.023 204.518 170.377C200.55 171.46 197.033 172.814 194.328 173.988C193.967 174.168 193.697 174.258 193.426 174.439C190.811 175.612 189.188 176.515 189.188 176.515L185.852 168.662C185.852 168.662 191.893 162.704 195.41 159.725C199.829 156.024 207.854 148.17 217.142 144.83C217.864 144.56 218.585 144.379 219.307 144.199C219.307 144.199 226.881 138.963 232.382 136.074C234.186 135.081 235.809 134.449 236.801 134.269C236.891 134.179 245.728 142.303 242.933 149.886Z" fill="#F9B587"/>
<path d="M222.192 148.531C222.192 148.531 219.036 145.011 217.232 144.74C217.954 144.469 218.675 144.289 219.397 144.108C219.397 144.108 221.922 146.636 222.192 148.531Z" fill="#F39568"/>
<path d="M242.933 149.886C242.933 149.886 237.793 154.399 230.398 157.197C230.398 157.197 226.16 159.906 220.659 162.975C224.447 160.267 230.398 154.489 234.997 150.608C238.153 147.9 236.44 144.469 235.087 141.31C234.546 139.956 233.194 137.609 232.562 136.165C232.562 136.074 232.472 136.074 232.382 136.074C234.186 135.081 235.809 134.449 236.801 134.269C236.891 134.179 245.728 142.303 242.933 149.886Z" fill="#F39568"/>
<path d="M193.156 171.37L194.148 180.758C194.238 181.751 193.877 182.744 193.156 183.376L187.655 188.431C187.024 189.063 186.032 188.972 185.401 188.341C184.86 187.799 184.86 186.986 185.221 186.355L189.278 180.397L188.557 178.591L186.212 182.202L184.319 185.723L183.327 191.229C183.146 192.042 182.425 192.583 181.613 192.403C180.892 192.222 180.441 191.59 180.531 190.868L181.072 184.188L181.884 179.314L179.9 184.278L177.736 192.493C177.556 193.035 177.105 193.396 176.564 193.486C175.752 193.576 174.94 192.944 175.031 192.042L175.482 184.82L176.924 179.675L172.596 186.896L170.251 191.951C169.981 192.493 169.35 192.764 168.809 192.583C168.177 192.403 167.817 191.681 167.997 191.049L169.8 185.091L172.866 179.223L169.891 183.827L169.079 185.632C168.899 185.994 168.448 186.174 168.087 185.994C167.726 185.813 167.546 185.452 167.636 185.181L168.087 183.105L170.161 178.772L185.942 168.301C185.942 168.571 188.647 167.669 193.156 171.37Z" fill="#F9B587"/>
<path d="M194.148 173.988C193.787 174.168 193.697 174.168 193.426 174.349C193.426 174.349 193.156 173.085 191.262 171.55C191.352 171.55 192.795 172.002 194.148 173.988Z" fill="#F39568"/>
<path d="M339.511 155.302C339.15 155.934 338.519 156.385 337.707 156.656C338.339 166.224 338.068 174.439 336.625 178.14C332.207 189.604 294.423 195.201 285.315 186.896C276.208 178.591 271.338 123.798 283.512 115.132C292.62 108.632 311.827 107.639 320.935 107.549C324.722 107.459 328.239 109.806 329.682 113.326C331.936 119.013 334.01 128.04 335.543 137.609C336.084 137.609 336.625 137.699 337.257 137.88C339.15 138.512 340.413 153.587 339.511 155.302Z" fill="#131313"/>
<path d="M270.166 268.41C270.527 269.764 271.068 271.118 272.06 272.382C272.06 272.382 268.092 274.007 264.395 275.541C261.599 276.715 256.91 277.347 253.934 278.52C253.213 278.791 252.582 279.152 252.041 279.513C251.95 279.603 251.77 279.694 251.68 279.784C250.057 281.319 241.31 284.929 238.604 285.652C238.334 285.742 238.154 285.742 237.973 285.742C237.162 285.742 235.989 285.381 235.268 284.298C234.637 283.305 234.366 281.68 235.088 279.152C235.719 276.715 237.793 273.736 239.867 271.208C242.392 268.139 245.368 265.612 248.794 263.626C251.95 261.73 256.008 259.293 256.82 258.48C259.345 255.682 261.599 252.523 265.116 251.168C266.018 250.807 267.19 250.717 268.362 250.717C272.15 250.807 276.658 252.342 276.658 252.342C276.658 252.342 268.182 260.195 270.166 268.41Z" fill="#B0B1CA"/>
<path d="M268.453 250.627C266.74 251.891 264.034 254.057 262.862 256.043C261.149 259.022 254.476 262.181 251.59 264.077C248.704 265.973 237.523 274.729 236.441 279.513C235.449 283.666 237.432 285.29 238.605 285.652C238.334 285.742 238.154 285.742 237.973 285.742C236.44 285.742 233.645 284.478 235.088 279.062C235.719 276.625 237.793 273.646 239.867 271.118C242.392 268.049 245.368 265.521 248.795 263.535C251.951 261.64 256.009 259.202 256.82 258.39C259.345 255.592 261.599 252.432 265.116 251.078C266.018 250.627 267.19 250.537 268.453 250.627Z" fill="#131313"/>
<path opacity="0.2" d="M272.06 272.382C272.06 272.382 268.092 274.007 264.395 275.541C261.599 276.715 256.91 277.347 253.934 278.52C253.213 278.791 252.582 279.152 252.041 279.513C251.951 279.603 251.77 279.694 251.68 279.784C250.057 281.319 241.31 284.929 238.605 285.652C238.334 285.742 238.154 285.742 237.973 285.742C237.162 285.742 235.989 285.381 235.268 284.298C235.268 284.298 240.949 283.034 243.925 281.138C245.819 279.874 248.434 277.979 250.959 276.625C250.418 275.541 249.606 274.187 248.344 272.472C248.434 272.562 250.418 274.007 252.221 275.993C253.213 275.541 254.115 275.271 254.926 275.18C257.812 274.909 267.01 271.84 270.256 268.41C270.527 269.764 271.158 271.028 272.06 272.382Z" fill="#131313"/>
<path d="M250.688 242.412C250.598 246.835 251.59 250.537 251.409 252.071C251.139 254.87 246.359 260.557 246.359 260.557C245.999 263.806 243.474 268.32 240.047 270.757C240.047 270.757 240.047 270.757 239.957 270.757L239.867 270.847C237.883 272.201 235.629 272.833 233.284 272.021C233.013 271.931 232.743 271.84 232.563 271.75C228.234 269.674 226.881 254.599 232.563 248.551C238.063 242.683 240.408 230.767 245.909 229.413C251.409 228.059 254.205 230.497 254.205 230.497C254.024 230.677 253.934 230.948 253.754 231.129C251.499 234.83 250.778 238.892 250.688 242.412Z" fill="#B0B1CA"/>
<path d="M254.205 230.406C254.024 230.587 253.934 230.858 253.754 231.038C253.213 230.858 248.073 229.052 244.826 231.038C241.49 233.205 239.596 241.329 237.793 243.586C235.989 245.842 230.488 253.967 230.308 257.126C230.128 260.286 229.406 268.229 232.472 270.486C235.358 272.653 238.785 271.389 239.867 270.757C237.612 272.292 235.087 272.833 232.563 271.66C228.234 269.584 226.881 254.508 232.563 248.46C238.063 242.593 240.408 230.677 245.909 229.323C251.409 227.969 254.205 230.406 254.205 230.406Z" fill="#131313"/>
<path opacity="0.2" d="M251.409 252.071C251.139 254.689 247.081 259.654 246.45 260.466L246.36 260.557C245.999 263.806 243.474 268.32 240.047 270.757C240.047 270.757 240.047 270.757 239.957 270.757L239.867 270.847C237.883 272.201 235.629 272.833 233.284 272.021C233.645 271.84 234.096 271.66 234.637 271.569C238.514 270.757 241.851 265.341 242.572 262.452C242.753 261.549 243.474 260.466 244.376 259.293C243.023 258.571 241.31 257.668 239.867 257.668C239.867 257.668 241.671 257.036 244.917 258.48C246.901 255.953 249.426 253.245 249.696 252.071C250.147 250.175 250.508 242.412 250.508 242.412C250.598 246.835 251.59 250.537 251.409 252.071Z" fill="#131313"/>
<path d="M364.58 87.6895L353.488 93.9182L342.216 100.147C342.216 100.147 337.707 89.9463 341.765 83.5371C341.765 83.5371 342.667 82.9955 344.11 82.2733C345.102 81.7317 346.364 81.0998 347.627 80.5582C348.348 80.1971 349.07 79.9263 349.791 79.6555C349.791 79.6555 350.873 75.9544 352.767 71.802C353.759 69.6355 353.939 68.1009 353.759 67.1982C353.669 66.3858 353.398 66.0247 353.398 66.0247C353.398 66.0247 359.169 63.1361 362.506 60.2475C362.596 60.2475 369.72 76.496 364.58 87.6895Z" fill="#F9B587"/>
<path d="M355.472 84.169C355.472 84.169 350.693 85.3425 347.627 80.5582C348.348 80.1971 349.07 79.9263 349.791 79.6555C349.791 79.6555 351.955 83.5371 355.472 84.169Z" fill="#F39568"/>
<path d="M353.488 93.8279L342.216 100.057C342.216 100.057 337.707 89.856 341.765 83.4468C341.765 83.4468 342.667 82.9052 344.11 82.1831C344.11 82.1831 344.2 90.849 345.463 93.0155C346.545 95.2722 350.512 94.55 353.488 93.8279Z" fill="#F39568"/>
<path d="M362.596 60.2475C361.243 61.782 355.382 65.9345 354.57 66.2955C354.3 66.4761 353.849 66.2955 353.488 65.9345C353.128 65.9345 350.513 66.0247 349.07 65.3928C348.258 65.0318 348.258 63.9485 348.529 62.775C346.635 62.3237 342.938 59.435 343.028 56.6367C343.118 53.6578 346.274 53.3869 346.274 53.3869C346.364 49.9567 349.611 50.4983 349.611 50.4983C349.791 48.9637 352.496 48.3318 352.496 48.3318C352.767 47.068 354.57 46.7972 355.653 47.3389C356.735 47.8805 362.957 55.1021 363.227 56.4561C363.317 57.8102 362.596 60.2475 362.596 60.2475Z" fill="#F9B587"/>
<path d="M353.218 61.1502C353.669 62.8653 352.226 63.1361 352.226 63.1361C352.496 62.9556 352.496 62.1431 352.406 61.5112C352.406 61.5112 352.406 61.0599 352.226 60.5183C352.045 59.9766 351.685 59.2545 350.963 58.9837C349.701 58.4421 349.07 58.8031 349.07 58.8031L346.455 55.2826C347.807 56.095 349.611 57.9907 349.611 57.9907C351.865 57.9004 352.767 59.6156 353.037 60.5183C353.488 60.5183 354.029 60.2475 354.21 59.6156C354.57 58.3518 353.759 57.1783 353.759 57.1783L350.152 52.394C350.152 52.394 355.021 56.9977 355.202 58.7129C355.292 61.1502 353.218 61.1502 353.218 61.1502Z" fill="#F39568"/>
<path d="M353.759 50.9497C353.759 50.9497 356.915 54.741 357.366 55.8242C357.817 56.9977 357.095 58.081 356.284 58.3518C355.472 58.5323 354.931 58.1713 354.931 58.1713V59.3448C354.931 59.3448 358.177 59.8864 358.177 56.8172C358.177 55.1923 353.759 50.9497 353.759 50.9497Z" fill="#F39568"/>
<path d="M357.997 56.0048C357.997 56.0048 358.809 56.7269 359.71 56.4561C360.612 56.1853 360.883 55.5534 360.612 54.9215C360.612 54.9215 361.153 55.4631 360.702 56.2756C360.071 57.3588 358.448 57.1783 357.997 56.9977V56.0048Z" fill="#F39568"/>
<path d="M357.366 65.3929C357.366 65.3929 356.374 67.2885 353.759 67.108C353.668 66.2956 353.398 65.9345 353.398 65.9345C353.398 65.9345 355.562 66.115 357.366 65.3929Z" fill="#F39568"/>
<path d="M320.394 210.818C320.394 210.818 317.147 203.686 317.688 199.534C318.319 195.472 323.82 201.881 324.542 203.596C325.263 205.311 324.181 210.096 320.394 210.818Z" fill="#4801FB"/>
<path d="M278.913 252.703C275.666 254.147 272.24 254.96 269.444 255.05C272.42 252.884 275.937 252.071 275.937 252.071C276.839 252.161 277.831 252.432 278.913 252.703Z" fill="#131313"/>
<path d="M342.577 268.861C341.946 255.953 320.755 223.094 317.418 198.09L304.072 193.305C302.269 192.764 303.08 193.125 301.006 192.493C301.006 192.493 269.535 176.244 255.467 197.638C255.467 197.638 253.664 205.221 257.992 213.255C259.796 216.595 261.149 226.886 259.796 228.962C259.796 228.962 257.992 229.143 254.205 230.406C251.86 231.219 248.163 232.753 245.729 233.746C242.663 235.01 240.228 237.718 239.416 240.968C238.965 242.683 238.965 244.579 239.687 246.745C242.031 253.606 247.983 254.328 251.86 253.696C251.86 253.696 260.157 253.696 266.649 254.869C267.461 255.05 268.363 255.05 269.355 255.05C267.551 256.404 265.928 258.21 265.477 260.647C264.124 267.146 270.437 271.931 270.437 271.931C270.437 271.931 271.068 273.285 276.118 273.014C281.168 272.743 281.168 271.389 285.316 273.014C289.464 274.729 318.681 286.735 328.329 287.186C338.068 287.638 343.208 281.77 342.577 268.861ZM287.931 255.05C287.931 255.05 283.242 253.967 278.823 252.703C283.692 250.627 288.201 247.106 289.644 242.864C291.718 236.545 290.906 233.114 291.538 230.316C291.538 230.316 296.407 245.211 310.024 257.939C310.024 257.939 295.596 254.779 287.931 255.05Z" fill="#131313"/>
<path d="M255.378 233.476C254.927 233.566 254.476 233.656 254.025 233.746L254.205 234.378C254.656 234.288 255.107 234.198 255.558 234.107C256.009 234.017 256.46 233.927 256.911 233.837L256.73 233.205C256.279 233.205 255.828 233.385 255.378 233.476Z" fill="#282828"/>
<path d="M241.49 238.17L241.851 238.801C242.663 238.35 243.474 237.899 244.286 237.447L244.015 236.816C243.113 237.267 242.302 237.718 241.49 238.17Z" fill="#282828"/>
<path d="M249.696 234.739L249.877 235.371C250.688 235.191 251.59 234.92 252.582 234.739L252.402 234.107C251.319 234.288 250.418 234.559 249.696 234.739Z" fill="#282828"/>
<path d="M264.215 223.726H264.936C264.846 222.824 264.756 221.831 264.665 220.928L264.034 221.018C264.034 221.831 264.124 222.824 264.215 223.726Z" fill="#282828"/>
<path d="M258.624 195.562H257.902C257.812 196.465 257.812 197.458 257.812 198.361H258.533C258.533 197.368 258.533 196.465 258.624 195.562Z" fill="#282828"/>
<path d="M263.673 219.303L264.304 219.213C264.124 218.22 263.944 217.317 263.673 216.415L263.042 216.595C263.313 217.498 263.493 218.4 263.673 219.303Z" fill="#282828"/>
<path d="M245.368 236.184L245.638 236.816C246.36 236.454 247.261 236.184 248.253 235.913L248.073 235.281C247.081 235.461 246.179 235.823 245.368 236.184Z" fill="#282828"/>
<path d="M263.403 230.858C263.222 231.129 262.952 231.309 262.501 231.58L262.771 232.212C263.313 231.941 263.763 231.67 263.944 231.309C264.214 230.948 264.395 230.497 264.575 229.865L263.944 229.684C263.763 230.316 263.583 230.677 263.403 230.858Z" fill="#282828"/>
<path d="M263.223 214.88C262.862 213.887 262.501 213.075 262.141 212.262L261.509 212.623C261.87 213.345 262.231 214.248 262.591 215.151L263.223 214.88Z" fill="#282828"/>
<path d="M258.533 199.895H257.812C257.812 200.888 257.902 201.791 257.992 202.693L258.714 202.603C258.533 201.791 258.533 200.888 258.533 199.895Z" fill="#282828"/>
<path d="M264.936 225.351H264.215C264.215 225.442 264.215 225.532 264.215 225.622C264.215 226.525 264.215 227.337 264.125 228.059L264.846 228.15C264.936 227.427 264.936 226.525 264.936 225.622C264.936 225.532 264.936 225.442 264.936 225.351Z" fill="#282828"/>
<path d="M259.345 207.026C259.075 206.214 258.894 205.311 258.804 204.318L258.173 204.409C258.353 205.402 258.534 206.304 258.714 207.207L259.345 207.026Z" fill="#282828"/>
<path d="M259.886 208.471L259.255 208.742C259.616 209.644 260.066 210.366 260.517 210.998C260.608 211.089 260.608 211.179 260.698 211.179L261.239 210.818C261.149 210.727 261.149 210.637 261.058 210.547C260.608 210.005 260.247 209.283 259.886 208.471Z" fill="#282828"/>
<path d="M258.353 232.844L258.533 233.476C259.706 233.205 260.517 233.024 261.239 232.753L261.058 232.121C260.337 232.302 259.435 232.573 258.353 232.844Z" fill="#282828"/>
<path d="M293.521 228.872C293.07 228.15 292.8 227.698 292.8 227.698L293.341 227.337C293.341 227.337 293.611 227.789 294.062 228.511L293.521 228.872Z" fill="#282828"/>
<path d="M280.536 255.862C281.258 256.043 282.159 256.224 283.151 256.494L283.332 255.862C282.249 255.592 281.438 255.321 280.716 255.231L280.536 255.862Z" fill="#282828"/>
<path d="M276.478 254.508L276.388 255.14C277.11 255.231 277.651 255.321 278.192 255.321C278.372 255.321 278.643 255.411 279.003 255.411L279.093 254.779C278.733 254.689 278.372 254.689 278.192 254.689C277.741 254.689 277.11 254.599 276.478 254.508Z" fill="#282828"/>
<path d="M284.684 256.946C285.496 257.126 286.397 257.397 287.299 257.668L287.48 257.036C286.578 256.765 285.676 256.494 284.864 256.314L284.684 256.946Z" fill="#282828"/>
<path d="M289.064 257.364L288.869 258.059L291.474 258.791L291.669 258.096L289.064 257.364Z" fill="#282828"/>
<path d="M292.98 259.202C293.882 259.473 294.694 259.654 295.596 259.925L295.776 259.293C294.874 259.022 294.063 258.841 293.161 258.571L292.98 259.202Z" fill="#282828"/>
<path d="M303.711 242.773C303.17 242.051 302.629 241.329 302.178 240.517L301.637 240.878C302.178 241.6 302.629 242.322 303.17 243.134L303.711 242.773Z" fill="#282828"/>
<path d="M316.877 259.744C316.697 259.022 316.246 258.209 315.434 257.307L314.893 257.758C315.614 258.571 316.065 259.293 316.156 259.925L316.877 259.744Z" fill="#282828"/>
<path d="M306.236 246.204C305.695 245.481 305.154 244.759 304.613 244.037L304.072 244.398C304.613 245.12 305.154 245.843 305.695 246.565L306.236 246.204Z" fill="#282828"/>
<path d="M272.15 254.238L272.06 254.508C273.052 254.689 273.953 254.87 274.765 254.96L274.855 254.328C274.494 254.238 274.043 254.147 273.593 254.147C273.142 254.147 272.691 254.147 272.15 254.238Z" fill="#282828"/>
<path d="M294.333 230.226C294.784 230.858 295.235 231.67 295.866 232.483L296.407 232.121C295.866 231.309 295.325 230.497 294.874 229.865L294.333 230.226Z" fill="#282828"/>
<path d="M310.745 262.723C310.474 262.723 310.204 262.723 309.843 262.633L309.753 263.355C310.114 263.355 310.384 263.445 310.655 263.445C310.745 263.445 310.745 263.445 310.835 263.445C311.466 263.445 312.098 263.355 312.548 263.355L312.458 262.633C311.917 262.633 311.376 262.633 310.745 262.723Z" fill="#282828"/>
<path d="M313.991 255.772C313.54 255.321 312.999 254.779 312.458 254.147L311.917 254.599C312.458 255.231 312.999 255.772 313.45 256.224C313.54 256.314 313.63 256.404 313.811 256.494L314.262 256.043C314.262 256.043 314.081 255.953 313.991 255.772Z" fill="#282828"/>
<path d="M311.466 252.974C310.925 252.342 310.384 251.62 309.753 250.898L309.212 251.349C309.843 252.161 310.384 252.793 310.925 253.425L311.466 252.974Z" fill="#282828"/>
<path d="M306.597 247.919C307.138 248.641 307.679 249.453 308.22 250.085L308.761 249.634C308.22 249.002 307.679 248.19 307.138 247.467L306.597 247.919Z" fill="#282828"/>
<path d="M313.991 262.272L314.172 262.904C315.434 262.633 316.246 262.091 316.696 261.459L316.155 261.098C315.705 261.64 314.983 262.091 313.991 262.272Z" fill="#282828"/>
<path d="M297.128 260.376C298.03 260.647 298.932 260.827 299.744 261.098L299.924 260.466C299.112 260.195 298.211 260.015 297.309 259.744L297.128 260.376Z" fill="#282828"/>
<path d="M305.424 262.542C306.416 262.813 307.318 262.994 308.13 263.084L308.22 262.452C307.498 262.362 306.597 262.091 305.605 261.911L305.424 262.542Z" fill="#282828"/>
<path d="M299.203 237.357C299.744 238.079 300.195 238.801 300.736 239.614L301.277 239.253C300.736 238.531 300.195 237.718 299.744 236.996L299.203 237.357Z" fill="#282828"/>
<path d="M298.842 235.642C298.301 234.83 297.76 234.107 297.309 233.385L296.768 233.746C297.218 234.468 297.759 235.191 298.301 236.003L298.842 235.642Z" fill="#282828"/>
<path d="M301.276 261.459C302.178 261.73 303.08 261.911 303.891 262.091L304.072 261.459C303.26 261.279 302.358 261.008 301.457 260.827L301.276 261.459Z" fill="#282828"/>
<path d="M278.913 252.703C275.666 254.147 272.24 254.96 269.444 255.05C272.42 252.884 275.937 252.071 275.937 252.071C276.839 252.161 277.831 252.432 278.913 252.703Z" fill="#131313"/>
<path d="M343.298 101.772C343.208 106.105 343.028 109.174 343.028 109.174C342.216 109.445 341.405 109.806 340.503 110.257C334.641 113.236 327.337 119.465 325.534 125.783C324.812 128.311 324.542 133.456 324.361 139.414C324.271 144.199 324.271 149.344 324.361 153.948C324.361 154.218 324.361 154.399 324.361 154.67C324.452 160.447 324.632 165.141 324.632 166.495C324.632 170.196 323.911 181.209 323.73 185.903C323.55 190.688 324.902 195.743 325.534 203.686C326.165 211.72 320.304 210.727 320.304 210.727C325.985 208.38 323.009 201.61 319.402 200.166C318.861 199.985 318.229 199.715 317.508 199.444C308.941 196.375 288.922 191.229 278.733 189.785C263.583 187.528 255.377 197.548 255.377 197.548C255.377 197.548 258.353 181.029 260.878 177.779C263.403 174.529 264.846 163.787 265.928 159.364C266.108 158.732 266.108 158.01 266.198 157.197C266.379 153.226 265.477 146.907 264.936 143.657C264.755 142.393 264.575 141.581 264.575 141.581C263.042 144.108 253.123 149.344 247.983 151.871C246.179 152.774 245.007 153.316 245.007 153.316L240.769 146.907L232.382 134.179C232.382 134.179 232.923 133.637 234.637 132.283C235.899 131.29 237.703 129.936 240.318 127.95C246.72 123.166 254.295 114.59 257.09 113.236C259.886 111.882 260.337 112.062 264.034 108.452C266.649 105.924 276.027 102.945 281.438 101.32C283.782 100.688 285.315 100.237 285.315 100.237C292.529 102.404 297.85 99.4246 297.85 99.4246C297.85 99.4246 299.834 98.1608 302.539 96.536C306.867 93.9182 313.089 90.3976 315.614 90.2171C318.861 89.9463 332.838 86.0647 338.79 84.3495C340.413 83.8982 341.405 83.6274 341.405 83.6274C343.118 88.7728 343.388 96.2652 343.298 101.772Z" fill="#433FEC"/>
<path d="M291.447 107.098C285.045 107.459 282.339 102.674 281.708 101.411C284.053 100.779 285.586 100.327 285.586 100.327C292.8 102.494 298.12 99.5149 298.12 99.5149C298.12 99.5149 300.104 98.2511 302.809 96.6263C303.621 103.035 298.661 106.736 291.447 107.098Z" fill="#131313"/>
<path d="M248.163 151.871C246.359 152.774 245.187 153.316 245.187 153.316L232.562 134.179C232.562 134.179 233.104 133.637 234.817 132.283L248.163 151.871Z" fill="#131313"/>
<path d="M343.028 109.264C342.216 109.535 341.405 109.896 340.503 110.347C341.585 99.6052 339.872 88.6825 339.06 84.3495C340.683 83.8982 341.675 83.6274 341.675 83.6274C344.29 92.9252 343.028 109.264 343.028 109.264Z" fill="#131313"/>
<path d="M324.452 153.948C314.082 149.434 288.742 141.22 266.379 157.197C266.559 153.226 265.657 146.907 265.116 143.657C268.543 141.49 284.774 131.741 300.375 132.283C311.106 132.644 319.492 136.526 324.452 139.414C324.362 144.199 324.362 149.434 324.452 153.948Z" fill="#3D05CD"/>
<path d="M274.314 64.5804C274.314 64.5804 270.166 63.6777 269.715 68.462C269.264 72.5242 274.494 74.0588 274.494 74.0588C274.494 74.0588 276.118 67.108 274.314 64.5804Z" fill="#131313"/>
<path d="M276.298 71.5312C276.298 71.5312 272.15 70.6285 271.699 75.4128C271.248 79.475 276.478 81.0095 276.478 81.0095C276.478 81.0095 278.101 74.0588 276.298 71.5312Z" fill="#131313"/>
<path d="M273.593 65.4831C273.593 65.4831 267.01 62.9556 269.264 55.734C271.519 48.5124 279.995 51.401 279.995 51.401C279.995 51.401 280.266 46.3459 285.947 46.0751C291.538 45.8043 293.612 50.3178 293.612 50.3178C293.612 50.3178 297.399 46.5264 302.088 47.6999C306.687 48.8734 308.31 54.4702 306.867 57.088C306.867 57.088 309.843 56.5464 312.007 59.9766C314.262 63.4069 314.803 68.462 312.007 70.3577C312.007 70.3577 315.344 73.9685 313.54 78.9333C311.737 83.8079 306.867 83.7176 306.867 83.7176C306.867 83.7176 307.769 90.1268 301.547 91.6614C295.325 93.196 295.956 87.6895 295.956 87.6895C295.956 87.6895 285.135 62.6847 273.593 65.4831Z" fill="#131313"/>
<path d="M299.473 94.2792L300.375 98.7025C300.645 99.7857 300.194 100.959 299.202 101.681C291.267 107.459 285.135 103.487 283.873 101.501C284.864 100.598 301.908 84.3495 302.178 75.2323C302.268 75.3225 304.252 86.6063 299.473 94.2792Z" fill="#F9B587"/>
<path d="M274.044 77.7598C273.683 79.0236 273.593 80.3777 273.683 81.7317C273.773 82.9052 274.044 83.9885 274.495 85.0717L277.29 92.2933C278.372 95.0014 280.987 96.7165 283.873 96.6263C287.209 96.4457 291.538 95.7236 295.415 93.196C302.63 88.4117 302.63 77.3988 302.63 77.3988C302.63 77.3988 301.998 66.2053 292.8 61.9626C283.512 57.7199 274.044 62.6848 274.044 62.6848L272.962 70.5382C272.872 70.9896 272.872 71.4409 272.872 71.8923C272.872 73.3366 273.052 74.8712 273.503 76.2252L274.044 77.7598Z" fill="#F9B587"/>
<path d="M281.618 69.455C281.618 69.455 286.848 64.3999 290.455 68.9134L289.824 70.0869C289.824 70.0869 286.217 66.9274 281.979 70.8993L281.618 69.455Z" fill="#131313"/>
<path d="M274.044 77.7598C273.683 79.0236 273.593 80.3777 273.683 81.7317C274.765 80.9193 277.019 80.2874 281.618 80.9193C281.618 80.9193 279.184 78.9333 276.749 78.9333C276.118 78.9333 275.667 78.3015 275.847 77.6696L277.2 73.5171C277.2 73.5171 276.749 72.7047 275.667 72.3436C275.036 72.1631 273.773 71.8923 272.781 71.802C272.781 73.2463 272.962 74.7809 273.412 76.135L274.044 77.7598Z" fill="#F39568"/>
<path d="M273.052 70.5382C274.855 70.6285 276.208 71.1701 276.208 71.1701L276.388 72.5242C275.126 72.0728 274.044 71.9826 273.052 71.9826C272.601 71.9826 272.15 71.6215 272.24 71.2604C272.24 70.8091 272.601 70.5382 273.052 70.5382Z" fill="#131313"/>
<path d="M276.118 84.2593L288.562 83.0858C288.562 83.0858 287.119 89.7657 280.536 89.5852C275.306 89.4046 276.118 84.2593 276.118 84.2593Z" fill="white"/>
<path d="M284.594 96.4457C284.594 96.4457 292.259 95.4527 296.407 84.8009C296.407 84.8009 298.301 88.7728 296.046 94.4598C293.792 100.147 283.963 101.591 283.963 101.591L284.594 96.4457Z" fill="#F39568"/>
<path d="M299.383 75.5031C299.383 75.5031 301.727 71.0798 305.154 73.0658C308.581 75.0517 306.687 85.2522 301.727 83.3566C296.768 81.4609 299.383 75.5031 299.383 75.5031Z" fill="#F9B587"/>
<path d="M283.151 73.4269C283.151 73.4269 283.873 71.1701 285.857 71.1701C288.742 71.1701 289.283 73.6074 289.283 73.6074C289.283 73.6074 286.488 69.7258 283.151 73.4269Z" fill="#131313"/>
<path d="M276.659 74.9615C276.659 74.9615 274.675 72.6144 273.502 75.5031C273.502 75.5031 274.765 73.6074 276.659 74.9615Z" fill="#131313"/>
<path d="M273.593 65.4831C273.593 65.4831 276.929 66.2956 279.815 64.3999C282.61 62.4139 281.979 60.6988 281.979 60.6988C281.979 60.6988 283.151 63.5874 286.939 63.3166C290.816 63.0458 291.267 61.9626 291.267 61.9626C291.267 61.9626 291.087 66.2955 294.243 66.9274C297.399 67.5593 299.293 65.0318 299.293 65.0318C299.293 65.0318 285.316 52.7551 280.536 56.0048C275.757 59.2545 271.699 60.9696 273.593 65.4831Z" fill="#131313"/>
<path d="M297.67 65.5734C297.67 65.5734 295.776 69.2745 299.022 71.3507C299.022 71.3507 298.932 74.5101 297.85 77.1279H300.285C300.285 77.1279 302.088 73.9685 301.908 71.2604C301.728 68.6426 301.728 64.4901 297.67 65.5734Z" fill="#131313"/>
<path d="M362.596 60.2475C362.596 60.2475 362.055 61.6918 361.243 62.2334C361.243 62.2334 362.596 62.1431 363.047 61.421L362.596 60.2475Z" fill="#F39568"/>
<path opacity="0.2" d="M317.598 199.534C309.032 196.465 289.013 191.319 278.823 189.875C263.673 187.618 255.467 197.638 255.467 197.638C255.467 197.638 258.443 181.119 260.968 177.869C263.493 174.62 264.936 163.877 266.018 159.454C266.198 158.822 266.198 158.1 266.288 157.288C266.469 153.316 265.567 146.997 265.026 143.747C264.846 142.483 264.665 141.671 264.665 141.671C263.132 144.199 253.213 149.434 248.073 151.962C246.269 152.864 245.097 153.406 245.097 153.406L240.859 146.997L240.318 144.199C240.318 144.199 251.409 138.15 266.649 129.936C266.649 129.936 273.503 138.602 273.412 148.622C273.232 166.495 270.707 178.591 281.708 182.744C292.439 186.716 316.156 198.812 317.598 199.534Z" fill="#131313"/>
<path opacity="0.2" d="M343.298 101.772C343.208 106.105 343.028 109.174 343.028 109.174C342.216 109.445 341.405 109.806 340.503 110.257C334.641 113.236 327.337 119.465 325.534 125.783C324.812 128.311 324.542 133.456 324.361 139.414C324.271 144.199 324.271 149.344 324.361 153.948C324.361 154.218 324.361 154.399 324.361 154.67C324.361 154.67 320.484 127.86 322.648 120.006C324.993 112.243 342.938 102.042 343.298 101.772Z" fill="#131313"/>
<path d="M269.625 108.181C266.379 127.499 267.01 150.337 267.01 150.337C268.182 156.385 265.657 161.44 265.657 161.44C253.303 148.08 261.78 108.181 266.379 100.147C272.06 90.2171 280.266 101.862 280.266 101.862L276.028 103.216C276.028 103.216 274.585 101.14 272.781 101.591C270.978 101.952 269.625 108.181 269.625 108.181Z" fill="#131313"/>
<path d="M304.613 95.4527C304.613 95.4527 305.876 85.7036 312.999 85.4328C324.271 85.0717 327.067 114.68 327.969 130.748C328.87 146.816 324.452 149.976 324.452 149.976L324.271 140.859C324.271 140.859 318.41 101.411 315.524 94.4598C312.368 86.8771 309.663 90.5782 306.777 94.4598L304.252 95.6333" fill="#131313"/>
<path d="M58.2536 85.3425C40.0381 80.6485 25.7903 63.4069 22.003 59.2545C21.6423 58.8934 21.2816 58.2615 20.9209 57.4491C17.3138 49.9567 11.4524 25.313 10.19 19.7162C10.0998 19.3552 10.0096 19.0844 10.0096 18.8135C10.0096 18.633 9.91943 18.5427 9.91943 18.5427L20.2896 14.0292C20.2896 14.0292 21.1012 23.9589 26.151 31.993C31.1107 40.027 35.7097 52.7551 35.7097 52.7551C45.4486 57.5394 55.909 66.4761 55.909 66.4761C61.3195 77.9404 58.2536 85.3425 58.2536 85.3425Z" fill="#F9B587"/>
<path d="M58.2536 85.3425C40.0381 80.6485 25.7904 63.4069 22.003 59.2545C21.6423 58.8934 21.2816 58.2615 20.9209 57.4491C21.1012 57.6296 34.6276 69.1842 39.6774 72.1631C44.8174 75.142 50.5887 77.7598 53.3841 75.7739C56.2697 73.788 56.9911 69.9966 55.909 66.5664C61.3196 77.9404 58.2536 85.3425 58.2536 85.3425Z" fill="#F39568"/>
<path d="M10.5507 19.0844C12.5345 18.9941 19.4781 17.1887 20.3798 16.8276C20.6504 16.6471 20.8307 16.286 20.8307 15.7444C21.1012 15.4736 22.9047 13.4876 23.2654 11.953C23.536 11.1406 22.6342 10.4184 21.6423 9.78655C22.544 8.07142 22.6342 3.37738 20.5602 1.57198C18.2156 -0.323685 15.9612 2.02333 15.9612 2.02333C13.256 -0.143145 11.6328 2.74549 11.6328 2.74549C10.2802 2.02333 8.02577 3.64819 8.02577 3.64819C6.85348 3.0163 5.59103 4.28008 5.23032 5.36332C4.9598 6.53683 6.49278 16.0152 7.30436 17.0984C8.20612 18.1817 10.5507 19.0844 10.5507 19.0844Z" fill="#F9B587"/>
<path d="M17.2238 12.4946C18.2157 13.939 19.388 12.946 19.388 12.946C19.0273 13.0363 18.4863 12.4946 18.0354 12.0433C18.0354 12.0433 17.6747 11.7725 17.4042 11.3211C17.0434 10.7795 16.7729 10.1476 17.0434 9.3352C17.4042 8.07142 18.0354 7.89088 18.0354 7.89088L17.0434 3.64819C16.7729 5.18278 17.1336 7.80061 17.1336 7.80061C15.6006 9.51574 16.322 11.2309 16.8631 12.0433C16.5024 12.4044 16.0515 12.5849 15.5105 12.4044C14.3382 11.8628 13.8873 10.4184 13.8873 10.4184L12.5347 4.55089C12.5347 4.55089 12.8954 11.2309 14.1578 12.4946C15.8712 14.1195 17.2238 12.4946 17.2238 12.4946Z" fill="#F39568"/>
<path d="M9.10791 6.35629C9.10791 6.35629 10.0097 11.2309 10.5507 12.2238C11.0918 13.3071 12.4444 13.4876 13.1658 13.0363C13.8872 12.4946 13.8872 11.8628 13.8872 11.8628L14.789 12.6752C14.789 12.6752 13.0756 15.4736 10.7311 13.4876C9.46861 12.4946 9.10791 6.35629 9.10791 6.35629Z" fill="#F39568"/>
<path d="M10.2801 12.8557C10.2801 12.8557 10.3703 13.939 9.46855 14.4806C8.65697 15.0222 8.02574 14.7514 7.66504 14.2098C7.66504 14.2098 7.75522 15.0222 8.65697 15.2028C9.91943 15.3833 10.731 14.0293 11.0015 13.5779L10.2801 12.8557Z" fill="#F39568"/>
<path d="M12.3542 19.0843C12.3542 19.0843 11.4524 19.8065 10.0998 19.7162C10.0096 19.3552 9.91943 19.0843 9.91943 18.8135C9.91943 18.8135 11.0015 19.1746 12.3542 19.0843Z" fill="#F39568"/>
<path d="M20.5604 16.6471C20.5604 16.6471 19.4783 17.7303 18.4863 18.0011C18.4863 18.0011 19.7488 18.0914 20.6505 17.4595L20.5604 16.6471Z" fill="#F39568"/>
<path d="M35.7099 52.7551C35.7099 52.7551 32.193 55.6437 30.2993 56.0048C30.2993 56.0048 34.267 57.3588 37.6035 53.748L35.7099 52.7551Z" fill="#F39568"/>
<path d="M46.8012 140.949C47.252 141.581 47.9734 141.852 48.785 142.032C49.4162 151.601 50.6787 159.725 52.5724 163.245C58.4338 173.988 96.5781 174.71 104.514 165.322C112.449 155.934 110.375 100.959 97.1191 93.9182C87.1998 88.6825 68.0826 90.1268 59.065 91.1198C55.2777 91.5711 52.1215 94.2792 51.1296 97.9803C49.5966 103.938 48.6948 113.055 48.4243 122.805C47.8833 122.895 47.3422 123.075 46.8012 123.346C44.9976 124.339 45.7191 139.414 46.8012 140.949Z" fill="#131313"/>
<path d="M189.91 87.5993C189.91 87.5993 187.025 98.4317 182.426 110.438C181.704 112.243 180.983 114.048 180.261 115.944C177.105 123.436 173.408 130.839 169.44 135.803C167.276 138.512 165.112 140.497 162.857 141.49C162.857 141.49 156.365 142.393 151.856 139.685C147.347 136.977 129.583 128.221 127.418 124.429C127.418 124.429 134.272 114.771 140.674 113.868C140.674 113.868 143.109 115.132 146.446 117.118C150.143 119.284 154.922 122.263 159.16 125.422C159.611 125.693 159.972 126.054 160.333 126.325C160.333 126.325 160.693 125.693 161.234 124.52C162.767 121.631 166.014 115.673 169.981 109.354C170.793 108 171.695 106.646 172.596 105.292C172.777 105.021 172.957 104.66 173.228 104.389C180.261 93.9182 181.163 86.3355 181.163 86.3355C181.163 86.3355 188.016 85.7036 189.91 87.5993Z" fill="#F9B587"/>
<path d="M182.425 110.438C181.704 112.243 180.983 114.048 180.261 115.944L170.071 109.354C170.883 108 171.785 106.646 172.686 105.292L182.425 110.438Z" fill="#F39568"/>
<path d="M169.35 135.803C167.186 138.512 165.022 140.497 162.767 141.49C162.767 141.49 156.274 142.393 151.766 139.685C147.257 136.977 129.492 128.221 127.328 124.429C127.328 124.429 134.181 114.771 140.584 113.868C140.584 113.868 143.019 115.132 146.355 117.118C145.994 118.472 144.371 123.346 141.576 125.693C138.33 128.492 145.904 134.81 152.487 137.609C159.07 140.407 163.669 140.317 169.35 135.803Z" fill="#F39568"/>
<path d="M160.062 133.637C160.783 130.568 159.16 125.332 159.16 125.332C159.611 125.603 159.972 125.964 160.332 126.235C160.332 126.235 160.693 125.603 161.234 124.429C161.956 131.109 160.062 133.637 160.062 133.637Z" fill="#F39568"/>
<path d="M129.853 294.498C123.811 290.977 121.647 287.547 118.04 281.499C115.876 277.888 113.892 274.909 112.629 273.014C111.728 271.75 111.637 270.035 112.359 268.681C112.449 268.591 112.449 268.5 112.539 268.32C113.982 265.612 116.327 261.82 118.401 261.73L120.745 262.994L128.681 267.327C128.681 267.327 132.197 275.361 132.017 278.791C131.927 281.86 137.788 288.901 139.592 292.873C139.772 293.234 139.862 293.505 139.953 293.776C140.043 293.956 140.043 294.137 140.043 294.317C140.403 297.928 135.895 298.019 129.853 294.498Z" fill="#B0B1CA"/>
<path d="M129.853 294.498C123.811 290.977 121.647 287.547 118.04 281.499C115.876 277.888 113.892 274.909 112.629 273.014C111.728 271.75 111.637 270.035 112.359 268.681C112.449 268.591 112.449 268.5 112.539 268.32C112.9 269.764 113.802 272.923 115.876 275.271C118.581 278.43 122.639 285.652 123.541 287.006C124.533 288.36 131.206 294.227 135.534 295.04C138.961 295.762 139.592 295.04 139.862 293.866C139.953 294.047 139.953 294.227 139.953 294.408C140.403 297.928 135.895 298.019 129.853 294.498Z" fill="#131313"/>
<path opacity="0.2" d="M129.853 294.498C123.811 290.977 121.647 287.547 118.04 281.499C115.876 277.888 113.892 274.909 112.629 273.014C111.728 271.75 111.637 270.035 112.359 268.681C112.449 268.591 112.449 268.5 112.539 268.32C113.982 265.612 116.327 261.82 118.401 261.73L120.745 262.994C120.745 262.994 116.236 267.056 117.679 271.479C119.122 275.993 123.901 282.673 126.426 285.652C128.861 288.54 134.272 293.505 139.592 292.873C139.772 293.234 139.862 293.505 139.953 293.776C140.043 293.956 140.043 294.137 140.043 294.317C140.403 297.928 135.895 298.019 129.853 294.498Z" fill="#131313"/>
<path d="M127.689 315.17C127.508 319.232 124.713 322.843 118.401 321.85C111.277 320.676 109.293 314.718 107.67 311.108C106.047 307.497 102.079 294.859 100.366 289.894C99.4638 287.186 99.7343 284.207 100.185 282.041C100.546 280.235 100.997 278.972 100.997 278.972L103.522 279.333L118.04 281.499C118.04 281.499 120.745 287.276 121.376 293.776C121.918 299.373 125.615 306.594 127.058 311.378C127.328 312.191 127.508 312.913 127.599 313.545C127.689 314.087 127.689 314.628 127.689 315.17Z" fill="#B0B1CA"/>
<path opacity="0.2" d="M127.689 315.17C127.508 319.232 124.713 322.843 118.401 321.85C111.277 320.676 109.293 314.718 107.67 311.108C106.047 307.497 102.079 294.859 100.366 289.894C99.4638 287.186 99.7343 284.207 100.185 282.041C100.546 280.235 100.997 278.972 100.997 278.972L103.522 279.333C103.251 281.86 104.333 288.992 106.407 292.783C108.932 297.567 110.736 308.038 115.064 312.733C119.393 317.427 127.238 318.239 127.058 311.469C127.328 312.281 127.508 313.003 127.599 313.635C127.689 314.087 127.689 314.628 127.689 315.17Z" fill="#131313"/>
<path d="M127.689 315.17C127.508 319.232 124.713 322.843 118.401 321.85C111.277 320.676 109.293 314.718 107.67 311.108C106.047 307.497 102.079 294.859 100.366 289.894C99.4638 287.186 99.7343 284.207 100.185 282.041C100.546 284.297 102.44 291.429 104.694 297.116C108.301 306.414 111.187 314.538 113.712 317.246C116.236 319.954 126.246 321.76 127.689 315.17Z" fill="#131313"/>
<path d="M53.384 83.8079L59.065 85.6133C59.065 85.6133 58.0731 89.6755 56.4499 89.6755C54.8268 89.5852 52.9331 88.6825 53.384 83.8079Z" fill="#4802FB"/>
<path d="M170.522 210.547C170.252 209.464 169.711 208.471 168.899 207.658C166.464 204.86 159.25 197.368 144.732 188.702C126.246 177.689 122.819 178.591 113.531 171.731C113.531 171.731 81.9697 168.21 68.9844 180.758C68.8943 180.848 68.7139 181.029 68.6237 181.119C67.4515 182.292 66.4595 183.647 65.6479 185.181C65.6479 185.181 65.6479 201.61 72.1406 207.568C78.6332 213.526 98.9227 234.739 100.816 234.469C100.816 234.469 100.997 237.718 103.432 237.899C103.432 237.899 100.095 251.349 101.448 257.126C101.448 257.126 99.3736 262.001 100.366 265.431C101.448 268.952 100.095 272.382 100.095 274.548C100.095 276.715 101.899 286.103 107.85 287.999C113.712 289.985 120.294 287.818 120.745 282.673C121.196 277.527 120.024 274.187 120.475 271.299C120.565 270.486 121.106 268.229 121.918 265.16C124.082 266.514 127.508 267.507 128.681 267.327C130.214 267.056 133.37 258.119 135.354 257.487C137.338 256.855 144.281 248.28 149.241 243.405C154.02 238.801 174.039 223.907 170.522 210.547ZM118.04 212.713L141.666 220.025C141.666 220.025 133.55 231.219 128.681 238.26C129.943 233.656 130.935 230.767 129.853 228.059C128.681 224.99 118.04 212.713 118.04 212.713Z" fill="#131313"/>
<path d="M69.796 182.112L68.8942 182.292C68.804 181.751 68.7139 181.39 68.7139 181.119C68.804 181.029 68.9844 180.848 69.0746 180.758L69.5254 180.668C69.6156 180.577 69.7058 181.119 69.796 182.112Z" fill="#282828"/>
<path d="M70.1566 184.098L69.2549 184.278C69.4352 185.271 69.6156 186.264 69.7959 187.167L70.6977 186.987C70.5173 186.084 70.337 185.091 70.1566 184.098ZM71.1486 188.972L70.2468 189.153C70.4272 190.146 70.6977 191.139 70.878 192.042L71.7798 191.861C71.5994 190.958 71.4191 189.965 71.1486 188.972ZM72.3208 193.847L71.4191 194.118C71.6896 195.111 71.9601 196.104 72.2307 197.006L73.1324 196.736C72.8619 195.833 72.5914 194.93 72.3208 193.847ZM73.7637 198.631L72.9521 198.902C73.3128 199.985 73.7637 200.888 74.1244 201.7L74.9359 201.249C74.5752 200.617 74.1244 199.715 73.7637 198.631ZM76.0181 202.874L75.3868 203.506C75.8377 203.957 76.5591 204.679 77.4609 205.672L78.0921 205.04C77.1002 204.048 76.4689 203.325 76.0181 202.874ZM79.5349 206.395L78.9037 207.026C79.5349 207.658 80.2563 208.38 81.0679 209.103L81.6991 208.471C80.8875 207.749 80.1661 207.117 79.5349 206.395ZM83.1419 209.915L82.5107 210.547C83.2321 211.179 83.9535 211.901 84.6749 212.623L85.3061 211.991C84.5847 211.269 83.8633 210.637 83.1419 209.915ZM86.8391 213.436L86.2079 214.067C86.9293 214.699 87.6507 215.422 88.3721 216.144L89.0033 215.512C88.1918 214.79 87.4704 214.067 86.8391 213.436ZM90.4461 216.866L89.8149 217.498C90.5363 218.22 91.2577 218.852 91.9791 219.574L92.6104 218.942C91.889 218.22 91.1676 217.498 90.4461 216.866ZM94.1433 220.296L93.5121 220.928C94.2335 221.65 94.9549 222.282 95.6763 222.914L96.3076 222.282C95.5862 221.65 94.8648 221.018 94.1433 220.296ZM97.8405 223.726L97.2093 224.358C98.0209 225.08 98.7423 225.712 99.4637 226.344L100.095 225.622C99.2834 225.08 98.562 224.358 97.8405 223.726ZM101.538 227.066L100.907 227.789C101.808 228.601 102.62 229.233 103.161 229.684L103.702 228.962C103.251 228.42 102.44 227.789 101.538 227.066ZM105.415 230.045L105.055 230.858C105.686 231.129 106.137 231.76 106.317 232.934L107.219 232.753C107.038 231.76 106.588 230.587 105.415 230.045ZM107.489 234.83L106.588 234.92C106.678 235.823 106.858 236.906 107.129 237.899L108.03 237.628C107.76 236.725 107.67 235.642 107.489 234.83ZM107.309 239.794C107.219 240.517 107.129 241.51 106.948 242.683L107.85 242.864C108.03 241.6 108.211 240.697 108.301 239.885L107.309 239.794ZM106.497 244.669C106.317 245.391 106.227 246.204 106.047 247.016L105.956 247.648L106.858 247.828L106.948 247.197C107.129 246.384 107.309 245.662 107.399 244.85L106.497 244.669ZM105.415 249.634C105.145 250.807 104.964 251.71 104.874 252.523L105.776 252.703C105.956 251.891 106.137 250.898 106.317 249.814L105.415 249.634ZM105.505 254.689L104.604 254.599C104.514 255.592 104.423 256.494 104.423 257.217C104.423 257.397 104.423 257.487 104.423 257.668H105.325C105.325 257.578 105.325 257.397 105.325 257.307C105.325 256.494 105.415 255.682 105.505 254.689ZM105.415 259.654H104.514C104.514 260.195 104.514 260.647 104.514 261.188C104.514 261.64 104.514 262.091 104.514 262.542H105.415C105.415 262.091 105.415 261.549 105.415 261.098C105.505 260.737 105.505 260.195 105.415 259.654ZM104.423 264.619C104.423 265.16 104.333 265.702 104.333 266.244C104.333 266.695 104.243 267.146 104.243 267.598L105.145 267.688C105.145 267.236 105.235 266.785 105.235 266.334C105.235 265.792 105.325 265.251 105.325 264.709L104.423 264.619ZM105.145 272.201C105.145 271.75 105.145 271.299 105.145 270.757C105.145 270.396 105.145 270.125 105.145 269.764H104.243C104.243 270.125 104.243 270.486 104.243 270.757C104.243 271.299 104.243 271.75 104.243 272.292C104.243 272.472 104.243 272.562 104.243 272.743H105.145C105.145 272.472 105.145 272.292 105.145 272.201ZM104.153 274.639C104.063 275.451 103.882 276.444 103.702 277.527L104.604 277.708C104.784 276.625 104.964 275.632 105.055 274.729L104.153 274.639ZM103.251 279.603C103.071 280.506 102.8 281.499 102.62 282.492L103.522 282.673C103.792 281.68 103.972 280.687 104.243 279.784L103.251 279.603Z" fill="#282828"/>
<path d="M114.523 206.485C114.523 206.485 115.605 206.846 117.318 207.388L117.589 206.485C115.876 205.853 114.793 205.582 114.793 205.582L114.523 206.485Z" fill="#282828"/>
<path d="M122.368 208.2C121.376 207.839 120.384 207.568 119.573 207.207L119.302 208.11C120.114 208.38 121.106 208.742 122.098 209.103L122.368 208.2Z" fill="#282828"/>
<path d="M128.049 244.398L128.771 244.94L130.484 242.503L129.763 241.961L128.049 244.398Z" fill="#282828"/>
<path d="M126.864 246.079L125.152 248.516L125.89 249.035L127.602 246.599L126.864 246.079Z" fill="#282828"/>
<path d="M123.541 250.717C123.541 251.259 123.541 251.71 123.631 252.252L124.713 250.717L123.991 250.175L123.541 250.717Z" fill="#282828"/>
<path d="M127.057 209.825C126.065 209.464 125.163 209.193 124.262 208.832L123.991 209.735C124.893 210.005 125.795 210.366 126.787 210.727L127.057 209.825Z" fill="#282828"/>
<path d="M141.305 214.79C140.403 214.519 139.502 214.158 138.51 213.797L138.239 214.609C139.231 214.97 140.133 215.331 141.035 215.602L141.305 214.79Z" fill="#282828"/>
<path d="M131.836 211.45C130.935 211.089 129.943 210.818 129.041 210.457L128.771 211.359C129.672 211.72 130.664 211.991 131.566 212.352L131.836 211.45Z" fill="#282828"/>
<path d="M140.133 228.42L140.764 229.052C141.395 228.42 142.027 227.608 142.748 226.886L142.027 226.254C141.485 226.976 140.764 227.789 140.133 228.42Z" fill="#282828"/>
<path d="M143.469 224.719L144.191 225.261C144.912 224.358 145.543 223.636 145.994 222.914L145.273 222.372C144.732 223.094 144.191 223.817 143.469 224.719Z" fill="#282828"/>
<path d="M145.994 216.505C145.363 216.234 144.371 215.873 143.199 215.422L142.928 216.234C144.101 216.685 145.002 217.046 145.724 217.317L145.994 216.505Z" fill="#282828"/>
<path d="M147.798 218.039L146.986 218.31C146.986 218.4 147.077 218.581 147.077 218.762C147.077 219.303 146.806 219.935 146.445 220.747L147.257 221.199C147.798 220.206 148.068 219.393 148.068 218.762C147.888 218.491 147.888 218.22 147.798 218.039Z" fill="#282828"/>
<path d="M130.935 240.336L131.656 240.878L133.37 238.44L132.648 237.899L130.935 240.336Z" fill="#282828"/>
<path d="M136.796 232.212L137.518 232.844C138.059 232.212 138.6 231.58 139.502 230.677L138.87 230.045C137.969 230.858 137.337 231.58 136.796 232.212Z" fill="#282828"/>
<path d="M135.263 234.198L133.82 236.274L134.542 236.816L135.985 234.739C136.075 234.649 136.165 234.469 136.255 234.378L135.534 233.837C135.443 233.927 135.353 234.017 135.263 234.198Z" fill="#282828"/>
<path d="M133.46 212.984C134.452 213.345 135.354 213.616 136.255 213.977L136.526 213.075C135.624 212.713 134.722 212.443 133.73 212.082L133.46 212.984Z" fill="#282828"/>
<path d="M144.822 116.034C143.74 120.728 139.231 125.061 135.714 127.86C133.19 129.846 131.115 131.019 131.115 131.019L128.951 129.214L122.368 123.527C122.368 123.527 122.368 123.527 119.212 130.026C116.056 136.526 116.958 153.226 116.597 158.01C116.237 162.162 122.639 171.911 123.992 175.161C124.172 175.612 124.262 175.974 124.172 176.154C123.631 177.508 107.85 179.584 97.5702 176.154C87.2901 172.724 66.5498 185.181 65.8283 185.001C65.1069 184.73 64.5659 154.399 61.4097 140.859C58.2536 127.318 63.4838 91.9322 63.4838 91.9322L59.2455 90.5782L57.3518 89.9463C51.761 90.2171 53.5645 83.6274 53.5645 83.6274C53.5645 83.6274 53.7448 90.3073 57.1715 88.5922C58.7045 87.7798 58.6143 83.2663 58.0732 78.482C57.2617 72.795 55.909 66.5663 55.909 66.4761C55.9992 66.4761 56.9911 66.7469 58.6143 67.1982C64.0248 68.7328 75.928 72.2534 80.4368 74.9615C81.7894 75.7739 85.0358 78.1209 87.5607 79.9263C89.4544 81.2803 90.8972 82.3636 90.8972 82.3636C99.8246 87.2382 102.62 86.9674 109.924 89.1338C110.285 89.2241 110.555 89.3144 110.916 89.4046C119.753 92.0225 129.853 95.1819 133.55 101.501C136.436 106.375 141.305 112.062 143.65 114.68C144.371 115.583 144.822 116.034 144.822 116.034Z" fill="#4702FB"/>
<path d="M59.1552 90.6684L57.2615 90.0365C51.6706 90.3073 53.4741 83.7176 53.4741 83.7176C53.4741 83.7176 53.6545 90.3976 57.0812 88.6825C58.6141 87.8701 58.524 83.3566 57.9829 78.5723C57.2615 72.795 55.9089 66.5663 55.9089 66.4761C55.9991 66.4761 56.991 66.7469 58.6141 67.1982C59.9668 72.7047 62.3113 84.7106 59.1552 90.6684Z" fill="#131313"/>
<path d="M144.822 116.034C143.74 120.728 139.231 125.061 135.714 127.86C133.189 129.846 131.115 131.019 131.115 131.019L128.951 129.214C136.165 124.339 141.215 118.201 143.199 114.229C144.011 115.132 144.822 116.034 144.822 116.034Z" fill="#131313"/>
<path d="M109.113 88.9533C107.67 92.7446 105.506 96.1749 94.4142 93.4668C81.8798 90.3976 88.7331 80.829 88.7331 80.829C90.6268 82.1831 90.8072 82.3636 90.8072 82.3636C99.7345 87.2382 99.9149 86.2452 107.219 88.4117C107.58 88.5922 108.842 88.863 109.113 88.9533Z" fill="#131313"/>
<path opacity="0.2" d="M135.715 127.95C133.19 129.936 131.116 131.109 131.116 131.109L122.459 123.617C122.459 123.617 122.459 123.617 119.303 130.116C116.147 136.616 117.048 153.316 116.688 158.1C110.465 143.296 121.377 116.034 121.377 116.034C124.353 122.263 135.534 127.769 135.715 127.95Z" fill="#131313"/>
<path opacity="0.2" d="M124.082 176.335C123.541 177.689 107.76 179.765 97.4802 176.335C87.2001 172.904 66.4598 185.362 65.7383 185.181C65.0169 184.91 64.4759 154.58 61.3197 141.039C58.1636 127.499 63.3938 92.1128 63.3938 92.1128L57.1717 90.1268C51.5808 90.3976 53.3843 83.8079 53.3843 83.8079C53.3843 83.8079 53.5646 90.4879 56.9913 88.7728C58.5243 87.9603 58.4341 83.4468 57.8931 78.6625C57.8931 78.6625 68.7141 86.4258 74.9363 88.2312C74.9363 88.2312 73.2229 99.3344 71.5096 113.868C69.8864 128.401 70.8784 138.331 74.2149 148.441C77.5514 158.551 84.9457 168.301 95.3159 169.384C105.596 170.467 115.696 177.689 123.902 175.251C124.082 175.793 124.172 176.154 124.082 176.335Z" fill="#131313"/>
<path d="M126.967 54.9215C126.697 55.1923 126.516 55.2826 126.516 55.2826L92.5203 67.1982C92.5203 67.1982 87.4704 64.8512 87.741 56.0048C87.9213 49.5956 92.0694 46.707 94.3238 45.5335C94.0533 45.2626 93.7827 44.9918 93.6024 44.721C93.3319 44.3599 93.6024 43.7281 94.0533 43.7281C94.5041 43.7281 94.8648 43.7281 95.1354 43.8183C95.0452 43.367 94.955 43.0059 94.955 42.5545C94.955 42.0129 95.4961 41.7421 95.8568 42.0129C96.5782 42.4643 97.029 42.8254 97.2996 43.2767C97.2996 43.2767 97.2996 43.2767 97.2996 43.1864C100.636 39.8464 104.965 37.8605 109.654 37.5897C112.179 37.4092 115.335 37.2286 118.401 36.8675C124.352 36.2356 128.951 37.3189 130.665 35.5135C131.025 35.5135 138.329 47.6999 126.967 54.9215Z" fill="#131313"/>
<path d="M126.336 52.7551C126.336 52.7551 129.853 60.8793 124.082 65.7539C123.992 65.7539 123.18 56.0048 126.336 52.7551Z" fill="#131313"/>
<path d="M106.137 90.4879C106.047 90.5782 106.047 90.5782 105.956 90.6684C105.235 91.2101 104.243 91.842 102.62 92.2933C99.6441 93.196 93.1514 90.3074 90.356 88.9533C89.6346 88.5922 89.2739 87.6895 89.5444 86.8771C91.1676 82.6344 91.889 78.2112 91.889 73.6977C91.889 66.8372 94.6844 60.428 94.6844 60.428C93.963 63.6777 95.2255 68.3718 97.1192 73.0658C100.185 80.9193 105.055 88.863 106.137 90.4879Z" fill="#F9B587"/>
<path d="M121.737 69.8161C121.737 71.1701 121.557 72.5242 121.106 73.788C120.745 74.8712 120.204 75.9544 119.573 76.9474L115.064 83.3566C113.351 85.7036 110.375 86.7868 107.579 85.9744C104.333 85.0717 100.275 83.176 97.119 79.7458C91.1674 73.2463 93.8727 62.4139 93.8727 62.4139C93.8727 62.4139 97.2092 51.5815 107.309 49.6859C117.409 47.7902 125.524 54.9215 125.524 54.9215L124.713 62.8653C124.623 63.3166 124.623 63.768 124.532 64.2193C124.172 65.6637 123.631 67.108 122.819 68.2815L121.737 69.8161Z" fill="#F9B587"/>
<path d="M116.326 59.7961C116.326 59.7961 112.449 53.4772 107.76 57.1783L108.12 58.5323C108.12 58.5323 112.449 56.2756 115.605 61.2404L116.326 59.7961Z" fill="#131313"/>
<path d="M121.737 69.8161C121.737 71.1701 121.557 72.5242 121.106 73.788C120.204 72.7047 118.13 71.5312 113.531 71.0799C113.531 71.0799 116.417 69.7258 118.761 70.2674C119.393 70.448 120.024 69.9063 119.934 69.2745L119.573 64.8512C119.573 64.8512 120.294 64.1291 121.377 64.1291C122.008 64.1291 123.36 64.1291 124.352 64.3096C123.992 65.7539 123.451 67.1983 122.639 68.3718L121.737 69.8161Z" fill="#F39568"/>
<path d="M124.533 62.9556C122.819 62.6847 121.286 62.775 121.286 62.775L120.835 64.0388C122.188 63.9485 123.27 64.0388 124.262 64.3096C124.713 64.3999 125.164 64.2193 125.254 63.768C125.254 63.4069 124.984 63.0458 124.533 62.9556Z" fill="#131313"/>
<path d="M118.13 75.6836L106.227 71.5312C106.227 71.5312 105.957 78.482 112.539 79.9263C117.679 81.0096 118.13 75.6836 118.13 75.6836Z" fill="white"/>
<path d="M106.948 85.5231L106.407 90.2171C106.317 90.3074 106.227 90.3976 106.137 90.4879C106.046 90.5782 106.046 90.5782 105.956 90.6684C104.243 89.856 96.8485 86.1549 96.1271 80.829C95.6762 77.3988 96.3074 74.8712 97.0288 73.2463C97.5699 71.9826 98.1109 71.2604 98.1109 71.2604C99.6439 82.7247 106.948 85.5231 106.948 85.5231Z" fill="#F39568"/>
<path d="M97.3898 61.421C97.3898 61.421 96.2176 56.4561 92.34 57.6296C88.4624 58.8031 87.9214 69.1842 93.2418 68.5523C98.5621 67.9204 97.3898 61.421 97.3898 61.421Z" fill="#F9B587"/>
<path d="M108.842 49.5053C108.842 49.5053 106.588 49.7761 106.317 52.5745C106.047 55.3729 105.596 60.2475 101.899 60.1572C98.2917 60.0669 97.931 64.4902 97.931 64.4902L95.3159 63.8583C95.3159 63.8583 95.0454 56.0048 96.7587 53.2967C98.5622 50.5886 105.866 46.707 108.842 49.5053Z" fill="#131313"/>
<path d="M108.481 61.9626C108.481 61.9626 109.744 60.3377 112.269 61.0599C114.794 61.7821 114.613 64.4902 114.613 64.4902C114.613 64.4902 113.171 60.9696 108.481 61.9626Z" fill="#131313"/>
<path d="M120.204 66.3858C120.204 66.3858 121.106 65.8442 122.098 66.2053C123.09 66.5664 122.729 67.9204 122.729 67.9204C122.729 67.9204 122.549 66.2053 120.204 66.3858Z" fill="#131313"/>
<path d="M207.441 91.1343L165.741 64.7567L148.303 92.3824L190.003 118.76L207.441 91.1343Z" fill="#131313"/>
<path d="M207.404 91.1198L190 118.742L148.339 92.3836L150.142 92.2933L206.682 88.2311L207.224 90.2171L207.404 91.1198Z" fill="#131313"/>
<path d="M207.224 90.2171L190.541 116.756C190 116.395 190.181 116.576 189.279 115.944L177.827 89.4949L206.683 88.3214L207.224 90.2171Z" fill="white"/>
<path d="M206.737 88.2242L166.867 63.004L149.429 90.6297L189.299 115.85L206.737 88.2242Z" fill="#131313"/>
<path d="M193.697 77.2182C193.336 76.496 192.435 75.8642 191.803 75.7739C191.803 75.142 191.172 74.6004 190.451 74.2393C190 74.0588 189.549 74.0588 189.098 74.149C188.918 73.4269 188.106 72.795 187.565 72.9755C187.565 72.9755 187.475 72.9755 187.205 73.0658C187.114 72.5242 186.844 72.1631 186.844 72.1631C186.483 71.3507 185.131 70.6285 184.499 70.8993C184.499 70.8993 179.269 71.802 178.097 75.4128C176.834 79.0236 175.301 83.176 177.105 82.9052C177.646 82.8149 178.277 82.3636 178.818 81.5512C178.187 83.7176 177.916 85.4328 179.089 85.2522C179.72 85.162 180.532 84.3495 181.253 83.3566C180.712 85.2522 180.622 86.516 181.704 86.4257C182.696 86.3355 183.958 84.7106 184.86 82.9052C184.229 84.9814 184.048 86.6063 185.221 86.4257C186.663 86.2452 187.655 83.3566 189.098 81.0998C190.812 78.482 190.721 80.0166 192.525 79.2944L193.878 80.1068C194.599 78.5723 193.787 77.3085 193.697 77.2182Z" fill="#F9B587"/>
<path d="M88.8229 80.9193C88.8229 80.9193 90.2657 68.9134 85.306 67.9204C75.6572 66.0247 64.9263 80.3777 59.0649 95.1819C50.3179 117.569 60.4176 134.359 60.4176 134.359L60.5979 125.783C60.5979 125.783 59.7863 107.188 68.4432 92.3836C77.1001 77.6696 83.0516 73.6977 84.3141 74.6906C85.5766 75.6836 85.6667 78.5723 85.6667 78.5723L88.8229 80.9193Z" fill="#131313"/>
<path d="M110.826 89.4949C110.826 89.4949 113.712 82.0025 123 85.3425C131.116 88.2311 130.214 96.8971 129.042 108.271C127.779 119.645 116.778 147.719 116.778 147.719C116.778 147.719 116.327 137.789 117.589 131.922C117.589 131.922 125.164 106.917 122.459 97.0776C119.754 87.2382 113.622 90.3074 113.622 90.3074L110.826 89.4949Z" fill="#131313"/>
</g>
<defs>
<clipPath id="clip0_37_286">
<rect width="380" height="321" fill="white" transform="translate(0 0.940094)"/>
</clipPath>
</defs>
</svg>
