<svg width="16" height="17" viewBox="0 0 16 17" fill="none" xmlns="http://www.w3.org/2000/svg">
<path d="M3.65399 12.2553L1.07888 14.949C0.795271 15.2457 0.595496 15.6123 0.5 16.0115L4.15645 13.136C5.30111 13.6436 6.21545 13.8053 6.9162 13.8053C8.14732 13.8053 8.71881 13.306 8.71881 13.306C7.57272 12.7096 7.40941 11.5965 7.40941 11.5965C8.2872 11.9676 10.1157 12.4051 10.1157 12.4051C12.544 10.7844 13.8131 7.27537 13.8131 7.27537C13.5617 7.34448 13.3212 7.37327 13.0947 7.37327C11.955 7.37327 11.1719 6.6435 11.1719 6.6435L14.3443 5.95261C15.3991 3.7885 15.5 0 15.5 0L5.85451 8.57887C4.76219 9.55039 3.99413 10.8336 3.65399 12.2553Z" fill="#4535EA"/>
</svg>
