<svg width="16" height="16" viewBox="0 0 16 16" fill="none" xmlns="http://www.w3.org/2000/svg">
<path fill-rule="evenodd" clip-rule="evenodd" d="M8 4.25586C8.41421 4.25586 8.75 4.59165 8.75 5.00586V7.6952L10.7803 9.72553C11.0732 10.0184 11.0732 10.4933 10.7803 10.7862C10.4874 11.0791 10.0126 11.0791 9.71967 10.7862L7.25 8.31652V5.00586C7.25 4.59165 7.58579 4.25586 8 4.25586Z" fill="#4535EA"/>
<path fill-rule="evenodd" clip-rule="evenodd" d="M8 2.00586C4.68629 2.00586 2 4.69215 2 8.00586C2 11.3196 4.68629 14.0059 8 14.0059C11.3137 14.0059 14 11.3196 14 8.00586C14 4.69215 11.3137 2.00586 8 2.00586ZM0.5 8.00586C0.5 3.86372 3.85786 0.505859 8 0.505859C12.1421 0.505859 15.5 3.86372 15.5 8.00586C15.5 12.148 12.1421 15.5059 8 15.5059C3.85786 15.5059 0.5 12.148 0.5 8.00586Z" fill="#4535EA"/>
</svg>
