<svg xmlns="http://www.w3.org/2000/svg" xmlns:xlink="http://www.w3.org/1999/xlink" contentStyleType="text/css" height="513px" preserveAspectRatio="none" style="width:517px;height:513px;background:#FFFFFF;" version="1.1" viewBox="0 0 517 513" width="517px" zoomAndPan="magnify"><defs/><g><line style="stroke:#181818;stroke-width:0.5;stroke-dasharray:5.0,5.0;" x1="27" x2="27" y1="78.9688" y2="434.5938"/><line style="stroke:#181818;stroke-width:0.5;stroke-dasharray:5.0,5.0;" x1="185.1885" x2="185.1885" y1="78.9688" y2="434.5938"/><line style="stroke:#181818;stroke-width:0.5;stroke-dasharray:5.0,5.0;" x1="331.9912" x2="331.9912" y1="78.9688" y2="434.5938"/><line style="stroke:#181818;stroke-width:0.5;stroke-dasharray:5.0,5.0;" x1="483.7646" x2="483.7646" y1="78.9688" y2="434.5938"/><text fill="#000000" font-family="Bookman Old Style" font-size="12" lengthAdjust="spacing" textLength="38.4551" x="5" y="76.1387">Admin</text><ellipse cx="27.2275" cy="13.5" fill="#E2E2F0" rx="8" ry="8" style="stroke:#181818;stroke-width:0.5;"/><path d="M27.2275,21.5 L27.2275,48.5 M14.2275,29.5 L40.2275,29.5 M27.2275,48.5 L14.2275,63.5 M27.2275,48.5 L40.2275,63.5 " fill="none" style="stroke:#181818;stroke-width:0.5;"/><text fill="#000000" font-family="Bookman Old Style" font-size="12" lengthAdjust="spacing" textLength="38.4551" x="5" y="444.7324">Admin</text><ellipse cx="27.2275" cy="456.0625" fill="#E2E2F0" rx="8" ry="8" style="stroke:#181818;stroke-width:0.5;"/><path d="M27.2275,464.0625 L27.2275,491.0625 M14.2275,472.0625 L40.2275,472.0625 M27.2275,491.0625 L14.2275,506.0625 M27.2275,491.0625 L40.2275,506.0625 " fill="none" style="stroke:#181818;stroke-width:0.5;"/><text fill="#000000" font-family="Bookman Old Style" font-size="12" lengthAdjust="spacing" textLength="80.5898" x="142.1885" y="76.1387">WebInterface</text><path d="M164.9834,37 L164.9834,61 M164.9834,49 L181.9834,49 " fill="none" style="stroke:#181818;stroke-width:0.5;"/><ellipse cx="193.9834" cy="49" fill="#E2E2F0" rx="12" ry="12" style="stroke:#181818;stroke-width:0.5;"/><text fill="#000000" font-family="Bookman Old Style" font-size="12" lengthAdjust="spacing" textLength="80.5898" x="142.1885" y="444.7324">WebInterface</text><path d="M164.9834,451.5625 L164.9834,475.5625 M164.9834,463.5625 L181.9834,463.5625 " fill="none" style="stroke:#181818;stroke-width:0.5;"/><ellipse cx="193.9834" cy="463.5625" fill="#E2E2F0" rx="12" ry="12" style="stroke:#181818;stroke-width:0.5;"/><text fill="#000000" font-family="Bookman Old Style" font-size="12" lengthAdjust="spacing" textLength="91.0898" x="283.9912" y="76.1387">BackendServer</text><ellipse cx="332.5361" cy="49" fill="#E2E2F0" rx="12" ry="12" style="stroke:#181818;stroke-width:0.5;"/><polygon fill="#181818" points="328.5361,37,334.5361,32,332.5361,37,334.5361,42,328.5361,37" style="stroke:#181818;stroke-width:1.0;"/><text fill="#000000" font-family="Bookman Old Style" font-size="12" lengthAdjust="spacing" textLength="91.0898" x="283.9912" y="444.7324">BackendServer</text><ellipse cx="332.5361" cy="463.5625" fill="#E2E2F0" rx="12" ry="12" style="stroke:#181818;stroke-width:0.5;"/><polygon fill="#181818" points="328.5361,451.5625,334.5361,446.5625,332.5361,451.5625,334.5361,456.5625,328.5361,451.5625" style="stroke:#181818;stroke-width:1.0;"/><text fill="#000000" font-family="Bookman Old Style" font-size="12" lengthAdjust="spacing" textLength="57.2578" x="452.7646" y="76.1387">Database</text><ellipse cx="484.3936" cy="49" fill="#E2E2F0" rx="12" ry="12" style="stroke:#181818;stroke-width:0.5;"/><line style="stroke:#181818;stroke-width:0.5;" x1="472.3936" x2="496.3936" y1="63" y2="63"/><text fill="#000000" font-family="Bookman Old Style" font-size="12" lengthAdjust="spacing" textLength="57.2578" x="452.7646" y="444.7324">Database</text><ellipse cx="484.3936" cy="463.5625" fill="#E2E2F0" rx="12" ry="12" style="stroke:#181818;stroke-width:0.5;"/><line style="stroke:#181818;stroke-width:0.5;" x1="472.3936" x2="496.3936" y1="477.5625" y2="477.5625"/><polygon fill="#181818" points="173.4834,104.9375,183.4834,108.9375,173.4834,112.9375,177.4834,108.9375" style="stroke:#181818;stroke-width:1.0;"/><line style="stroke:#181818;stroke-width:1.0;" x1="27.2275" x2="179.4834" y1="108.9375" y2="108.9375"/><text fill="#000000" font-family="Bookman Old Style" font-size="12" lengthAdjust="spacing" textLength="32.584" x="34.2275" y="104.1074">Login</text><polygon fill="#181818" points="320.5361,132.9063,330.5361,136.9063,320.5361,140.9063,324.5361,136.9063" style="stroke:#181818;stroke-width:1.0;"/><line style="stroke:#181818;stroke-width:1.0;" x1="185.4834" x2="326.5361" y1="136.9063" y2="136.9063"/><text fill="#000000" font-family="Bookman Old Style" font-size="12" lengthAdjust="spacing" textLength="107.2793" x="192.4834" y="132.0762">Verify Credentials</text><polygon fill="#181818" points="472.3936,160.875,482.3936,164.875,472.3936,168.875,476.3936,164.875" style="stroke:#181818;stroke-width:1.0;"/><line style="stroke:#181818;stroke-width:1.0;" x1="332.5361" x2="478.3936" y1="164.875" y2="164.875"/><text fill="#000000" font-family="Bookman Old Style" font-size="12" lengthAdjust="spacing" textLength="108.5625" x="339.5361" y="160.0449">Query Credentials</text><polygon fill="#181818" points="343.5361,188.8438,333.5361,192.8438,343.5361,196.8438,339.5361,192.8438" style="stroke:#181818;stroke-width:1.0;"/><line style="stroke:#181818;stroke-width:1.0;" x1="337.5361" x2="483.3936" y1="192.8438" y2="192.8438"/><text fill="#000000" font-family="Bookman Old Style" font-size="12" lengthAdjust="spacing" textLength="112.6641" x="349.5361" y="188.0137">Return Credentials</text><polygon fill="#181818" points="196.4834,216.8125,186.4834,220.8125,196.4834,224.8125,192.4834,220.8125" style="stroke:#181818;stroke-width:1.0;"/><line style="stroke:#181818;stroke-width:1.0;" x1="190.4834" x2="331.5361" y1="220.8125" y2="220.8125"/><text fill="#000000" font-family="Bookman Old Style" font-size="12" lengthAdjust="spacing" textLength="112.6641" x="202.4834" y="215.9824">Return Credentials</text><polygon fill="#181818" points="38.2275,244.7813,28.2275,248.7813,38.2275,252.7813,34.2275,248.7813" style="stroke:#181818;stroke-width:1.0;"/><line style="stroke:#181818;stroke-width:1.0;" x1="32.2275" x2="184.4834" y1="248.7813" y2="248.7813"/><text fill="#000000" font-family="Bookman Old Style" font-size="12" lengthAdjust="spacing" textLength="101.5078" x="44.2275" y="243.9512">Show Dashboard</text><polygon fill="#181818" points="173.4834,272.75,183.4834,276.75,173.4834,280.75,177.4834,276.75" style="stroke:#181818;stroke-width:1.0;"/><line style="stroke:#181818;stroke-width:1.0;" x1="27.2275" x2="179.4834" y1="276.75" y2="276.75"/><text fill="#000000" font-family="Bookman Old Style" font-size="12" lengthAdjust="spacing" textLength="116.2734" x="34.2275" y="271.9199">Add Faculty Details</text><polygon fill="#181818" points="320.5361,300.7188,330.5361,304.7188,320.5361,308.7188,324.5361,304.7188" style="stroke:#181818;stroke-width:1.0;"/><line style="stroke:#181818;stroke-width:1.0;" x1="185.4834" x2="326.5361" y1="304.7188" y2="304.7188"/><text fill="#000000" font-family="Bookman Old Style" font-size="12" lengthAdjust="spacing" textLength="123.0527" x="192.4834" y="299.8887">Send Faculty Details</text><polygon fill="#181818" points="472.3936,328.6875,482.3936,332.6875,472.3936,336.6875,476.3936,332.6875" style="stroke:#181818;stroke-width:1.0;"/><line style="stroke:#181818;stroke-width:1.0;" x1="332.5361" x2="478.3936" y1="332.6875" y2="332.6875"/><text fill="#000000" font-family="Bookman Old Style" font-size="12" lengthAdjust="spacing" textLength="127.8574" x="339.5361" y="327.8574">Insert Faculty Record</text><polygon fill="#181818" points="343.5361,356.6563,333.5361,360.6563,343.5361,364.6563,339.5361,360.6563" style="stroke:#181818;stroke-width:1.0;"/><line style="stroke:#181818;stroke-width:1.0;" x1="337.5361" x2="483.3936" y1="360.6563" y2="360.6563"/><text fill="#000000" font-family="Bookman Old Style" font-size="12" lengthAdjust="spacing" textLength="77.8477" x="349.5361" y="355.8262">Confirmation</text><polygon fill="#181818" points="196.4834,384.625,186.4834,388.625,196.4834,392.625,192.4834,388.625" style="stroke:#181818;stroke-width:1.0;"/><line style="stroke:#181818;stroke-width:1.0;" x1="190.4834" x2="331.5361" y1="388.625" y2="388.625"/><text fill="#000000" font-family="Bookman Old Style" font-size="12" lengthAdjust="spacing" textLength="85.8574" x="202.4834" y="383.7949">Faculty Added</text><polygon fill="#181818" points="38.2275,412.5938,28.2275,416.5938,38.2275,420.5938,34.2275,416.5938" style="stroke:#181818;stroke-width:1.0;"/><line style="stroke:#181818;stroke-width:1.0;" x1="32.2275" x2="184.4834" y1="416.5938" y2="416.5938"/><text fill="#000000" font-family="Bookman Old Style" font-size="12" lengthAdjust="spacing" textLength="134.2559" x="44.2275" y="411.7637">Confirmation Message</text><!--SRC=[XP3BQiCm44Nt-ehvWIxQfHU592KGw8F6qAx7rZWHjcVAQDpYVdtbW4kSEkxEoFSUNPrO1_v0nHOyLTWrjXMsPsm9rY9rYmmlZOVS-ePSdClcuPlWziuvB4qKLhuDx0hfsAFsy4x5Zesqmf9ScU8g3Qonh8bzJlf9weWjM0yFQ5XW9ETE2BYvdvGpU9H38f-V3Pa9AuCtqb3ri57o0nURw2Q9eJBUbC5hHpeDZ_zcq7koJdaPFLqyqxYSVtfh1lbHljAkU2m4rLzLiF8UjbWcyyaN6OOPuiNgF7t_wImesN4ajT_6daf9WnQqR8Ihe2rQ4FvFo4XDxo1_pSKv49ueHZpG3m00]--></g></svg>