<svg width="16" height="16" viewBox="0 0 16 16" fill="none" xmlns="http://www.w3.org/2000/svg">
<path fill-rule="evenodd" clip-rule="evenodd" d="M0 2.4001C0 1.07456 1.07452 0 2.4 0H13.6C14.9255 0 16 1.07457 16 2.4001V3.33739C16 3.97394 15.7472 4.58441 15.297 5.03454L10.6343 9.69744C10.4843 9.8475 10.4 10.051 10.4 10.2631V12.1378C10.4 12.7743 10.1472 13.3848 9.69705 13.8349L7.93545 15.5966C7.07367 16.4584 5.6 15.8481 5.6 14.6292V10.2631C5.6 10.051 5.51573 9.84751 5.36568 9.69744C5.36568 9.69744 5.36569 9.69745 5.36568 9.69744L0.702947 5.03452C0.252854 4.58441 0 3.97394 0 3.33739V2.4001ZM2.4 1.60007C1.95817 1.60007 1.6 1.95825 1.6 2.4001V3.33739C1.6 3.54958 1.68428 3.75306 1.83432 3.90311L6.49705 8.56602C6.94712 9.01613 7.2 9.62661 7.2 10.2631V14.0692L8.56567 12.7035C8.71573 12.5534 8.8 12.3499 8.8 12.1378V10.2631C8.8 9.62661 9.05285 9.01615 9.50295 8.56602L14.1657 3.90311C14.3157 3.75308 14.4 3.54959 14.4 3.33739V2.4001C14.4 1.95824 14.0418 1.60007 13.6 1.60007H2.4Z" fill="#282828"/>
</svg>
