<svg width="17" height="17" viewBox="0 0 17 17" fill="none" xmlns="http://www.w3.org/2000/svg">
<path fill-rule="evenodd" clip-rule="evenodd" d="M0.393094 0.393094C0.917218 -0.131031 1.76699 -0.131031 2.29112 0.393094L8.5 6.60198L14.7089 0.393094C15.233 -0.131031 16.0828 -0.131031 16.6069 0.393094C17.131 0.917218 17.131 1.76699 16.6069 2.29112L10.398 8.5L16.6069 14.7089C17.131 15.233 17.131 16.0828 16.6069 16.6069C16.0828 17.131 15.233 17.131 14.7089 16.6069L8.5 10.398L2.29112 16.6069C1.76699 17.131 0.917218 17.131 0.393094 16.6069C-0.131031 16.0828 -0.131031 15.233 0.393094 14.7089L6.60198 8.5L0.393094 2.29112C-0.131031 1.76699 -0.131031 0.917218 0.393094 0.393094Z" fill="white"/>
</svg>
