<svg width="22" height="17" viewBox="0 0 22 17" fill="none" xmlns="http://www.w3.org/2000/svg">
<path fill-rule="evenodd" clip-rule="evenodd" d="M0.5 1.5C0.5 0.671573 1.17157 0 2 0H20C20.8284 0 21.5 0.671573 21.5 1.5C21.5 2.32843 20.8284 3 20 3H2C1.17157 3 0.5 2.32843 0.5 1.5ZM0.5 8.25C0.5 7.42157 1.17157 6.75 2 6.75H13.25C14.0784 6.75 14.75 7.42157 14.75 8.25C14.75 9.07843 14.0784 9.75 13.25 9.75H2C1.17157 9.75 0.5 9.07843 0.5 8.25ZM0.5 15C0.5 14.1716 1.17157 13.5 2 13.5H7.625C8.45343 13.5 9.125 14.1716 9.125 15C9.125 15.8284 8.45343 16.5 7.625 16.5H2C1.17157 16.5 0.5 15.8284 0.5 15Z" fill="#131313"/>
</svg>
