<svg width="34" height="33" viewBox="0 0 34 33" fill="none" xmlns="http://www.w3.org/2000/svg">
<circle cx="17" cy="16.5" r="16.5" fill="#D7E7FF"/>
<path d="M24.88 19.38C25.0768 19.577 25.2329 19.8109 25.3392 20.0683C25.4456 20.3257 25.5002 20.6015 25.5 20.88C25.5 21.4423 25.2766 21.9815 24.8791 22.3791C24.4815 22.7766 23.9423 23 23.38 23H11.62C11.0577 23 10.5185 22.7766 10.1209 22.3791C9.72336 21.9815 9.5 21.4423 9.5 20.88C9.49976 20.6015 9.55438 20.3257 9.66077 20.0683C9.76715 19.8109 9.9232 19.577 10.12 19.38L11.5 18V14C11.5 12.4087 12.1321 10.8826 13.2574 9.75736C14.3826 8.63214 15.9087 8 17.5 8C19.0913 8 20.6174 8.63214 21.7426 9.75736C22.8679 10.8826 23.5 12.4087 23.5 14V18L24.88 19.38Z" fill="#EEF5FF"/>
<path d="M17.5 26C16.7044 26 15.9413 25.6839 15.3787 25.1213C14.8161 24.5587 14.5 23.7956 14.5 23H20.5C20.5 23.7956 20.1839 24.5587 19.6213 25.1213C19.0587 25.6839 18.2957 26 17.5 26ZM23.5 18V14C23.5 12.4087 22.8679 10.8826 21.7426 9.75736C20.6174 8.63214 19.0913 8 17.5 8C15.9087 8 14.3826 8.63214 13.2574 9.75736C12.1321 10.8826 11.5 12.4087 11.5 14V18L10.12 19.38C9.9232 19.577 9.76715 19.8109 9.66077 20.0683C9.55438 20.3257 9.49976 20.6015 9.5 20.88C9.5 21.4423 9.72336 21.9815 10.1209 22.3791C10.5185 22.7766 11.0577 23 11.62 23H23.38C23.9423 23 24.4815 22.7766 24.8791 22.3791C25.2766 21.9815 25.5 21.4423 25.5 20.88C25.5002 20.6015 25.4456 20.3257 25.3392 20.0683C25.2329 19.8109 25.0768 19.577 24.88 19.38L23.5 18Z" stroke="#131313" stroke-width="2" stroke-linecap="round" stroke-linejoin="round"/>
</svg>
