<svg width="20" height="16" viewBox="0 0 20 16" fill="none" xmlns="http://www.w3.org/2000/svg">
<path fill-rule="evenodd" clip-rule="evenodd" d="M5.00002 1C5.00002 0.44772 4.5523 0 4.00002 0C3.44773 0 3.00002 0.44772 3.00002 1V12.5858L1.7071 11.2929C1.31658 10.9024 0.683409 10.9024 0.292889 11.2929C-0.0976313 11.6834 -0.0976312 12.3166 0.292899 12.7071L3.29291 15.7071C3.48045 15.8946 3.73481 16 4.00002 16C4.26524 16 4.51959 15.8946 4.70713 15.7071L7.70711 12.7071C8.0976 12.3166 8.0976 11.6834 7.7071 11.2929C7.31658 10.9024 6.68341 10.9024 6.29289 11.2929L5.00002 12.5858V1ZM11 2C10.4477 2 10 2.44772 10 3C10 3.55228 10.4477 4 11 4H19C19.5523 4 20 3.55228 20 3C20 2.44772 19.5523 2 19 2H11ZM11 7C10.4477 7 10 7.4477 10 8C10 8.5523 10.4477 9 11 9H15C15.5523 9 16 8.5523 16 8C16 7.4477 15.5523 7 15 7H11ZM11 12C10.4477 12 10 12.4477 10 13C10 13.5523 10.4477 14 11 14H12C12.5523 14 13 13.5523 13 13C13 12.4477 12.5523 12 12 12H11Z" fill="#282828"/>
</svg>
