<svg width="20" height="17" viewBox="0 0 20 17" fill="none" xmlns="http://www.w3.org/2000/svg">
<path d="M1 16.0308H18.4167" stroke="#4535EA" stroke-width="1.5" stroke-miterlimit="10" stroke-linecap="round" stroke-linejoin="round"/>
<path d="M15.8677 16.0387V12.5078" stroke="#4535EA" stroke-width="1.5" stroke-miterlimit="10" stroke-linecap="round" stroke-linejoin="round"/>
<path d="M15.8833 7.23535C14.9174 7.23535 14.1416 8.01119 14.1416 8.97702V10.7741C14.1416 11.7399 14.9174 12.5158 15.8833 12.5158C16.8491 12.5158 17.6249 11.7399 17.6249 10.7741V8.97702C17.6249 8.01119 16.8491 7.23535 15.8833 7.23535Z" stroke="#4535EA" stroke-width="1.5" stroke-miterlimit="10" stroke-linecap="round" stroke-linejoin="round"/>
<path d="M1.87109 16.0308V3.38792C1.87109 1.79667 2.6628 0.99707 4.23822 0.99707H9.17026C10.7457 0.99707 11.5294 1.79667 11.5294 3.38792V16.0308" stroke="#4535EA" stroke-width="1.5" stroke-miterlimit="10" stroke-linecap="round" stroke-linejoin="round"/>
<path d="M4.7998 5.14551H8.71859" stroke="#4535EA" stroke-width="1.5" stroke-miterlimit="10" stroke-linecap="round" stroke-linejoin="round"/>
<path d="M4.7998 8.11426H8.71859" stroke="#4535EA" stroke-width="1.5" stroke-miterlimit="10" stroke-linecap="round" stroke-linejoin="round"/>
<path d="M6.73975 16.0308V13.062" stroke="#4535EA" stroke-width="1.5" stroke-miterlimit="10" stroke-linecap="round" stroke-linejoin="round"/>
</svg>
