<svg width="166" height="24" viewBox="0 0 166 24" fill="none" xmlns="http://www.w3.org/2000/svg">
<path d="M34.7016 18.4372V3.03216H30.3467V0H42.2311V3.03216H37.8762V18.4372H34.7016Z" fill="white"/>
<path d="M43.1875 18.4374V11.1521C43.1875 9.09675 43.5742 7.69259 44.3882 6.85824C44.7748 6.45124 45.2632 6.12564 45.8127 5.92214C46.3418 5.71864 46.8302 5.61689 47.2372 5.57619C47.6238 5.53549 48.1529 5.51514 48.8245 5.51514H51.4496V8.44555H48.3768C48.0512 8.44555 47.807 8.44555 47.6238 8.4659C47.4814 8.48625 47.2982 8.52695 47.0744 8.60835C46.8912 8.68975 46.7284 8.81185 46.586 8.97465C46.4232 9.1985 46.1993 9.74795 46.1993 11.1318V18.4171H43.1875V18.4374Z" fill="white"/>
<path d="M56.9646 18.4371C55.4587 18.4371 54.2174 18.0911 53.322 17.3992C52.3859 16.687 51.8975 15.6288 51.8975 14.2857C51.8975 12.9222 52.4062 11.8844 53.4034 11.1518C54.3598 10.4599 55.5605 10.1139 56.985 10.1139C57.7786 10.1139 58.6333 10.2564 59.5287 10.5413L59.8136 10.6227V14.0008L59.1624 13.492C58.5926 13.0647 57.9007 12.8408 57.0664 12.8408C56.3745 12.8408 55.825 12.9629 55.4587 13.2275C55.1331 13.4717 54.9703 13.7769 54.9703 14.2246C54.9703 14.5706 54.9703 15.4863 57.0257 15.4863H59.9357V11.1111C59.9357 9.32027 59.1217 8.46556 57.3716 8.46556H52.9353V5.53516H57.4937C59.2235 5.53516 60.5666 5.98286 61.523 6.85791C62.4795 7.73296 62.9679 9.01502 62.9679 10.6227V18.4371H56.9646Z" fill="white"/>
<path d="M71.1282 18.6814C69.1543 18.6814 67.5466 18.0302 66.346 16.7481C65.1453 15.4864 64.5552 13.8787 64.5552 11.9862C64.5552 10.114 65.186 8.52668 66.4477 7.24462C67.7094 5.94222 69.2764 5.29102 71.1282 5.29102C72.7155 5.29102 74.14 5.79977 75.3611 6.79692L75.707 7.08182L73.6516 9.15753L73.3667 8.93368C72.7359 8.44528 72.0033 8.22143 71.1282 8.22143C70.0904 8.22143 69.2764 8.54703 68.6862 9.23893C68.0757 9.93083 67.7705 10.8466 67.7705 12.0065C67.7705 13.1665 68.0757 14.0822 68.6862 14.7741C69.2967 15.4457 70.0904 15.7916 71.1282 15.7916C72.0236 15.7916 72.7359 15.5678 73.3464 15.0997L73.6313 14.8759L75.707 16.8906L75.3611 17.1755C74.14 18.1726 72.7155 18.6814 71.1282 18.6814Z" fill="white"/>
<path d="M84.0504 18.4372V16.1986C84.0504 15.1811 83.7655 14.4282 83.1957 13.8991C82.6056 13.37 81.7509 13.0851 80.6316 13.0851C80.3874 13.0851 80.1229 13.1054 79.8583 13.1258V18.4575H76.8262V0H79.8583V10.2971C80.0822 10.2768 80.2857 10.2768 80.5095 10.2768C80.7944 10.2768 81.059 10.2971 81.3439 10.3175L83.9487 5.53522H87.3472L84.1929 10.9687C86.1262 11.7013 87.0826 13.4514 87.0826 16.219V18.4372H84.0504Z" fill="white"/>
<path d="M93.595 18.4371C92.0891 18.4371 90.8477 18.0911 89.9523 17.3992C89.0162 16.687 88.5278 15.6288 88.5278 14.2857C88.5278 12.9222 89.0366 11.8844 90.0337 11.1518C90.9902 10.4599 92.1908 10.1139 93.6153 10.1139C94.409 10.1139 95.2637 10.2564 96.1591 10.5413L96.444 10.6227V14.0008L95.7928 13.492C95.223 13.0647 94.5311 12.8408 93.6967 12.8408C93.0048 12.8408 92.4554 12.9629 92.0891 13.2275C91.7635 13.4717 91.6007 13.7769 91.6007 14.2246C91.6007 14.5706 91.6007 15.4863 93.656 15.4863H96.5661V11.1111C96.5661 9.32027 95.7521 8.46556 94.002 8.46556H89.5657V5.53516H94.1241C95.8539 5.53516 97.197 5.98286 98.1534 6.85791C99.1099 7.73296 99.5983 9.01502 99.5983 10.6227V18.4371H93.595Z" fill="white"/>
<path d="M107.779 18.4372C105.845 18.4372 104.238 17.8063 103.037 16.565C101.816 15.3236 101.206 13.7363 101.206 11.8641C101.206 10.0122 101.836 8.44528 103.098 7.18357C104.36 5.92187 105.866 5.29102 107.595 5.29102C108.694 5.29102 109.753 5.55557 110.709 6.10502L110.913 6.22712V9.52383L110.261 9.05578C109.488 8.50633 108.593 8.22143 107.575 8.22143C106.68 8.22143 105.947 8.54703 105.316 9.21858C104.685 9.89013 104.38 10.7652 104.38 11.8641C104.38 12.9833 104.685 13.8787 105.276 14.5299C105.866 15.1811 106.68 15.5067 107.758 15.5067H111.014V0H114.087V18.4372H107.779Z" fill="white"/>
<path d="M122.614 18.6812C120.599 18.6812 118.971 18.0707 117.75 16.87C116.529 15.6694 115.919 14.1024 115.919 12.2302C115.919 10.1545 116.529 8.44512 117.71 7.14271C118.849 5.90136 120.396 5.27051 122.309 5.27051C122.411 5.27051 122.512 5.27051 122.614 5.27051C126.481 5.43331 127.295 7.50901 127.295 9.21842C127.295 12.2709 125.3 13.8379 121.373 13.8379H119.928V11.0906H121.536C122.818 11.0906 123.367 10.8668 123.632 10.6633C123.957 10.3987 124.14 9.93067 124.14 9.25912C124.14 8.87247 124.018 8.60792 123.733 8.42477C123.408 8.22127 123.001 8.09917 122.472 8.09917C121.393 8.09917 120.579 8.46547 119.989 9.19807C119.358 9.97137 119.053 10.8668 119.053 11.9657C119.053 13.1053 119.378 14.0007 120.03 14.7129C120.681 15.4048 121.515 15.7508 122.594 15.7508C123.55 15.7508 124.344 15.5269 124.934 15.0589L125.219 14.835L127.335 16.8904L126.989 17.1753C125.748 18.1724 124.283 18.6812 122.614 18.6812Z" fill="white"/>
<path d="M142.618 18.4371V10.9686C142.618 9.80867 142.292 9.07607 141.641 8.73012C141.397 8.60802 140.827 8.44521 139.382 8.44521H138.751V18.4167H135.719V8.44521H132.138V18.4167H129.105V5.53516H140.603C141.865 5.53516 142.903 5.77936 143.676 6.28811C144.47 6.79686 145.019 7.44806 145.263 8.26206C145.508 9.01502 145.63 9.93077 145.63 10.9686V18.4167H142.618V18.4371Z" fill="white"/>
<path d="M148.927 18.4371V8.4656H146.627L148.032 5.53519H151.959V18.4371H148.927ZM150.229 4.23279C149.639 4.23279 149.212 4.04964 148.907 3.68334C148.622 3.31704 148.479 2.93039 148.479 2.50304C148.479 2.07568 148.622 1.68903 148.886 1.32273C149.192 0.93608 149.639 0.75293 150.209 0.75293C150.799 0.75293 151.247 0.93608 151.532 1.32273C151.817 1.66868 151.939 2.07568 151.939 2.50304C151.939 2.93039 151.796 3.31704 151.532 3.68334C151.267 4.04964 150.82 4.23279 150.229 4.23279Z" fill="white"/>
<path d="M160.709 18.6814C158.735 18.6814 157.127 18.0302 155.927 16.7481C154.726 15.4864 154.136 13.8787 154.136 11.9862C154.136 10.114 154.767 8.52668 156.028 7.24462C157.29 5.94222 158.857 5.29102 160.709 5.29102C162.296 5.29102 163.721 5.79977 164.942 6.79692L165.288 7.08182L163.232 9.15753L162.947 8.93368C162.316 8.44528 161.584 8.22143 160.709 8.22143C159.671 8.22143 158.857 8.54703 158.267 9.23893C157.656 9.93083 157.351 10.8466 157.351 12.0065C157.351 13.1665 157.656 14.0822 158.267 14.7741C158.877 15.4457 159.671 15.7916 160.709 15.7916C161.604 15.7916 162.316 15.5678 162.927 15.0997L163.212 14.8759L165.288 16.8906L164.942 17.1755C163.7 18.1726 162.276 18.6814 160.709 18.6814Z" fill="white"/>
<path d="M30.7534 2.62514V0.406982H41.8238V2.62514H37.4689V18.0301H35.1083V2.62514H30.7534Z" fill="white"/>
<path d="M43.5942 18.0301V11.1518C43.5942 9.2185 43.9605 7.89574 44.6728 7.14279C45.0187 6.77649 45.4461 6.49159 45.9548 6.30844C46.4636 6.12529 46.8909 6.02354 47.2776 5.98284C47.6643 5.94214 48.173 5.94214 48.8242 5.94214H51.0424V8.05854H48.3765C48.0306 8.05854 47.7864 8.05854 47.6032 8.07889C47.42 8.09924 47.1962 8.16029 46.952 8.26204C46.7078 8.3638 46.4839 8.5266 46.3008 8.75045C45.9752 9.15745 45.8124 9.9511 45.8124 11.1721V18.0504H43.5942V18.0301Z" fill="white"/>
<path d="M59.4062 10.9279V13.1868C58.7754 12.6984 57.9817 12.4542 57.066 12.4542C56.2723 12.4542 55.6618 12.617 55.2345 12.9222C54.8071 13.2275 54.5833 13.6752 54.5833 14.245C54.5833 15.3439 55.3972 15.9137 57.0456 15.9137H60.3627V11.1111C60.3627 9.07605 59.3655 8.05854 57.3916 8.05854H53.3622V5.94214H57.5137C59.1417 5.94214 60.383 6.34914 61.2581 7.14279C62.1331 7.95679 62.5605 9.0964 62.5605 10.6227V18.0301H56.9439C55.5193 18.0301 54.3798 17.7045 53.5454 17.0736C52.711 16.4428 52.2837 15.5067 52.2837 14.2857C52.2837 13.0647 52.7314 12.1286 53.6268 11.4977C54.5222 10.8669 55.6415 10.5413 56.9642 10.5413C57.7375 10.5209 58.5312 10.6634 59.4062 10.9279Z" fill="white"/>
<path d="M73.5908 15.3845L75.0967 16.87C73.9368 17.8061 72.614 18.2742 71.1285 18.2742C69.2563 18.2742 67.7707 17.684 66.6515 16.4834C65.5322 15.2827 64.9624 13.7768 64.9624 11.986C64.9624 10.2156 65.5526 8.73 66.7329 7.509C67.9132 6.28799 69.3784 5.67749 71.1285 5.67749C72.614 5.67749 73.9571 6.14554 75.0967 7.08164L73.6112 8.58755C72.8989 8.05845 72.0849 7.77355 71.1285 7.77355C69.9685 7.77355 69.0528 8.1602 68.3812 8.91315C67.7097 9.68645 67.3637 10.6836 67.3637 11.9453C67.3637 13.207 67.7097 14.2245 68.3812 14.9775C69.0528 15.7508 69.9889 16.1171 71.1285 16.1171C72.1053 16.1578 72.9193 15.8932 73.5908 15.3845Z" fill="white"/>
<path d="M84.1931 5.9422H86.6351L83.5826 11.2129C85.638 11.7623 86.6758 13.431 86.6758 16.219V18.0301H84.4577V16.1986C84.4577 15.0794 84.1321 14.2043 83.4605 13.5938C82.789 12.9833 81.8529 12.6781 80.6319 12.6781C80.2452 12.6781 79.8586 12.6984 79.4516 12.7595V18.0505H77.2334V0.406982H79.4516V10.7448C80.1638 10.6431 80.8557 10.6431 81.568 10.7448L84.1931 5.9422Z" fill="white"/>
<path d="M96.0366 10.9279V13.1868C95.4057 12.6984 94.6121 12.4542 93.6963 12.4542C92.9027 12.4542 92.2922 12.617 91.8648 12.9222C91.4375 13.2275 91.2136 13.6752 91.2136 14.245C91.2136 15.3439 92.0276 15.9137 93.676 15.9137H96.993V11.1111C96.993 9.07605 95.9959 8.05854 94.0219 8.05854H89.9926V5.94214H94.144C95.772 5.94214 97.0134 6.34914 97.8884 7.14279C98.7635 7.95679 99.1908 9.0964 99.1908 10.6227V18.0301H93.5742C92.1497 18.0301 91.0101 17.7045 90.1758 17.0736C89.3414 16.4428 88.9141 15.5067 88.9141 14.2857C88.9141 13.0647 89.3618 12.1286 90.2572 11.4977C91.1526 10.8669 92.2718 10.5413 93.6149 10.5413C94.3882 10.5209 95.1819 10.6634 96.0366 10.9279Z" fill="white"/>
<path d="M111.421 0.406982H113.68V18.0301H107.758C105.927 18.0301 104.441 17.44 103.302 16.28C102.162 15.1201 101.592 13.6345 101.592 11.8641C101.592 10.114 102.182 8.64876 103.363 7.46845C104.543 6.28815 105.947 5.698 107.575 5.698C108.613 5.698 109.59 5.9422 110.485 6.45095V8.70981C109.651 8.0993 108.674 7.79405 107.575 7.79405C106.578 7.79405 105.723 8.16036 105.011 8.91331C104.319 9.66626 103.973 10.6431 103.973 11.8437C103.973 13.0647 104.299 14.0415 104.97 14.7945C105.642 15.5271 106.558 15.8934 107.758 15.8934H111.421V0.406982Z" fill="white"/>
<path d="M122.614 5.69808C125.463 5.82018 126.888 7.00049 126.888 9.23899C126.888 12.0473 125.056 13.4515 121.373 13.4515H120.335V11.5182H121.535C122.655 11.5182 123.448 11.3554 123.876 11.0094C124.303 10.6635 124.527 10.0937 124.527 9.27969C124.527 8.75059 124.344 8.36394 123.957 8.09939C123.57 7.83484 123.082 7.71274 122.472 7.71274C121.271 7.71274 120.335 8.14009 119.663 8.97444C118.992 9.80879 118.646 10.8263 118.646 11.9863C118.646 13.2276 119.012 14.2451 119.745 14.9981C120.477 15.7714 121.434 16.158 122.594 16.158C123.652 16.158 124.507 15.8935 125.178 15.3847L126.684 16.8703C125.524 17.8064 124.161 18.2744 122.573 18.2744C120.66 18.2744 119.134 17.7046 117.995 16.5854C116.855 15.4661 116.285 14.0009 116.285 12.2305C116.285 10.2565 116.855 8.64884 117.974 7.42784C119.134 6.20683 120.681 5.61668 122.614 5.69808Z" fill="white"/>
<path d="M129.553 5.94214H140.644C141.845 5.94214 142.781 6.16599 143.493 6.61369C144.205 7.06139 144.694 7.65154 144.918 8.38415C145.141 9.0964 145.263 9.97145 145.263 10.9686V18.0097H143.045V10.9686C143.045 9.6662 142.659 8.79115 141.865 8.38415C141.458 8.1603 140.644 8.05854 139.423 8.05854H138.385V18.0301H136.167V8.05854H131.771V18.0301H129.553V5.94214Z" fill="white"/>
<path d="M151.552 18.0304H149.334V8.05883H147.278L148.275 5.94242H151.552V18.0304ZM149.232 3.41901C149.008 3.13411 148.906 2.82886 148.906 2.48291C148.906 2.15731 149.008 1.83171 149.232 1.56716C149.456 1.28226 149.781 1.16016 150.229 1.16016C150.677 1.16016 151.023 1.30261 151.226 1.56716C151.45 1.85206 151.552 2.15731 151.552 2.48291C151.552 2.82886 151.45 3.13411 151.226 3.39866C151.002 3.68356 150.677 3.80566 150.229 3.80566C149.781 3.80566 149.435 3.70391 149.232 3.41901Z" fill="white"/>
<path d="M163.171 15.3845L164.677 16.87C163.517 17.8061 162.195 18.2742 160.709 18.2742C158.837 18.2742 157.351 17.684 156.232 16.4834C155.113 15.2827 154.543 13.7768 154.543 11.986C154.543 10.2156 155.133 8.73 156.313 7.509C157.494 6.28799 158.959 5.67749 160.709 5.67749C162.195 5.67749 163.538 6.14554 164.677 7.08164L163.192 8.58755C162.479 8.05845 161.665 7.77355 160.709 7.77355C159.549 7.77355 158.633 8.1602 157.962 8.91315C157.29 9.68645 156.944 10.6836 156.944 11.9453C156.944 13.207 157.29 14.2245 157.962 14.9775C158.633 15.7508 159.569 16.1171 160.709 16.1171C161.686 16.1578 162.5 15.8932 163.171 15.3845Z" fill="white"/>
<path fill-rule="evenodd" clip-rule="evenodd" d="M16.2187 5.75907C17.806 5.75907 19.088 4.47701 19.088 2.88971C19.088 1.28205 17.806 0 16.2187 0C15.0587 0 14.0412 0.691902 13.5935 1.68906C13.4104 2.03501 13.329 2.46236 13.329 2.88971C13.329 3.31706 13.4104 3.70371 13.5935 4.09036C14.0412 5.06717 15.0587 5.75907 16.2187 5.75907ZM19.6782 17.1551C20.0648 16.1579 20.309 15.2015 20.6957 14.1433C19.3933 14.1433 18.62 14.1026 17.3379 14.1433C16.3204 14.1433 15.8727 14.7334 15.5471 15.4457C14.8959 17.1348 14.2651 18.8442 13.6139 20.5332C13.2883 21.4083 12.9423 22.3037 12.6167 23.1991H16.1576C16.8699 21.1234 17.5618 19.1698 18.3961 17.1551H19.6782ZM27.5333 13.1258C27.4315 12.9019 27.3298 12.6781 27.228 12.4542C27.167 12.3321 26.821 11.8844 26.8617 11.742C27.1263 10.3582 27.4315 8.97438 27.6961 7.59057C27.9199 6.51202 27.4519 5.82012 26.821 5.55557C25.9663 5.20962 25.4576 4.98576 24.6436 4.63981C24.2976 4.47701 23.9313 4.33456 23.5447 4.17176C22.4458 3.64266 21.7132 3.50021 20.6346 4.23281C18.5793 5.51487 16.3001 7.00042 14.2651 8.30282C14.5296 7.59057 14.957 6.71552 15.2215 6.00327C14.6721 5.79977 14.1837 5.57592 13.6139 5.35207C13.5325 5.31137 13.4307 5.29102 13.3493 5.25032L13.3086 5.35207C12.6778 6.69517 11.8434 8.32318 11.355 9.64593C11.0294 10.6634 12.1283 11.4571 13.1255 11.1315C13.1458 11.1315 16.2594 9.70698 17.5211 9.15753C18.9456 10.7855 20.3497 12.4339 21.7742 14.0415C21.062 14.4892 20.8992 14.6113 20.5736 15.6288L17.9281 23.1584H21.6318L23.7482 17.1958C23.972 17.2162 24.3994 17.2569 24.6436 17.2569C25.3558 17.2569 26.0274 17.2772 26.6786 16.9312C28.0217 16.1986 28.042 14.3875 27.5333 13.1258ZM26.1698 13.4514H23.9517L24.6436 9.78838L24.7453 9.23893L24.6436 9.07613L23.0766 6.85797L24.6436 7.24462L25.4576 7.42777L24.4197 13.1461H26.1698V13.4514ZM12.1486 13.9194C12.6167 13.9805 13.1051 14.0822 13.5935 14.1636C13.797 14.2043 14.0005 14.2247 14.204 14.2654L14.8756 12.0269C14.4075 11.9251 5.45348 10.1343 1.36312 9.32033L0.711914 11.4571C1.52592 11.6402 2.15677 11.803 2.97077 12.0065C2.72657 12.1693 2.50272 12.3321 2.25852 12.4949C2.78762 13.0851 3.29637 13.6956 3.84582 14.3061C4.76158 13.37 5.81978 12.9426 7.04078 13.0647C9.21824 13.4107 10.8259 14.652 10.7852 17.1755C10.8259 19.5361 8.52634 21.1844 6.77623 21.2455C5.67733 21.2251 4.65983 20.5943 3.76442 20.0041C3.21497 20.4315 2.64517 20.8588 2.09572 21.2455C3.07252 22.5275 4.49703 23.4026 6.91868 23.3822C10.8666 22.9752 12.6371 20.5943 13.0034 17.2976C13.1662 15.873 12.7388 14.9776 12.1486 13.9194Z" fill="#414DED"/>
<path d="M87.0822 23.3824H23.4883L24.6686 19.9026H87.0822V23.3824Z" fill="#414DED"/>
</svg>
