<svg width="260" height="37" viewBox="0 0 260 37" fill="none" xmlns="http://www.w3.org/2000/svg">
<path d="M53.6978 29.1273V4.79025H46.8179V0H65.5931V4.79025H58.7131V29.1273H53.6978Z" fill="#131313"/>
<path d="M67.104 29.1273V17.6178C67.104 14.3707 67.7148 12.1524 69.0008 10.8343C69.6117 10.1913 70.3832 9.67694 71.2513 9.35545C72.0871 9.03396 72.8587 8.87321 73.5017 8.80891C74.1126 8.74461 74.9484 8.71246 76.0094 8.71246H80.1566V13.342H75.3021C74.7877 13.342 74.4019 13.342 74.1126 13.3741C73.8875 13.4063 73.5982 13.4706 73.2445 13.5992C72.9552 13.7278 72.698 13.9207 72.4729 14.1778C72.2157 14.5315 71.8621 15.3995 71.8621 17.5857V29.0951H67.104V29.1273Z" fill="#131313"/>
<path d="M88.8689 29.1273C86.4899 29.1273 84.5288 28.5807 83.1142 27.4877C81.6354 26.3624 80.8638 24.6907 80.8638 22.5688C80.8638 20.4148 81.6675 18.7752 83.2428 17.6178C84.7538 16.5248 86.6506 15.9782 88.9011 15.9782C90.1549 15.9782 91.5052 16.2033 92.9198 16.6534L93.3698 16.782V22.1187L92.3411 21.315C91.4409 20.6399 90.3478 20.2862 89.0297 20.2862C87.9366 20.2862 87.0686 20.4791 86.4899 20.8971C85.9755 21.2829 85.7183 21.7651 85.7183 22.4724C85.7183 23.0189 85.7183 24.4656 88.9654 24.4656H93.5627V17.5535C93.5627 14.7244 92.2768 13.3741 89.5119 13.3741H82.5034V8.74463H89.7048C92.4375 8.74463 94.5594 9.45191 96.0704 10.8343C97.5814 12.2168 98.353 14.2422 98.353 16.782V29.1273H88.8689Z" fill="#131313"/>
<path d="M111.245 29.5131C108.127 29.5131 105.587 28.4843 103.69 26.4589C101.793 24.4656 100.861 21.9258 100.861 18.9359C100.861 15.9782 101.857 13.4706 103.851 11.4452C105.844 9.3876 108.319 8.35883 111.245 8.35883C113.753 8.35883 116.003 9.16256 117.932 10.7379L118.479 11.188L115.232 14.4672L114.781 14.1136C113.785 13.342 112.627 12.9883 111.245 12.9883C109.605 12.9883 108.319 13.5027 107.387 14.5958C106.423 15.6889 105.94 17.1356 105.94 18.9681C105.94 20.8006 106.423 22.2473 107.387 23.3404C108.352 24.4013 109.605 24.9479 111.245 24.9479C112.66 24.9479 113.785 24.5942 114.749 23.8548L115.199 23.5011L118.479 26.6839L117.932 27.134C116.003 28.7093 113.753 29.5131 111.245 29.5131Z" fill="#131313"/>
<path d="M131.66 29.1273V25.5908C131.66 23.9834 131.209 22.7939 130.309 21.958C129.377 21.1221 128.027 20.672 126.259 20.672C125.873 20.672 125.455 20.7042 125.037 20.7363V29.1594H120.247V0H125.037V16.2675C125.39 16.2354 125.712 16.2354 126.066 16.2354C126.516 16.2354 126.934 16.2675 127.384 16.2997L131.499 8.74461H136.868L131.885 17.3285C134.939 18.4858 136.45 21.2507 136.45 25.623V29.1273H131.66Z" fill="#131313"/>
<path d="M146.738 29.1273C144.359 29.1273 142.397 28.5807 140.983 27.4877C139.504 26.3624 138.732 24.6907 138.732 22.5688C138.732 20.4148 139.536 18.7752 141.111 17.6178C142.622 16.5248 144.519 15.9782 146.77 15.9782C148.024 15.9782 149.374 16.2033 150.788 16.6534L151.238 16.782V22.1187L150.21 21.315C149.31 20.6399 148.216 20.2862 146.898 20.2862C145.805 20.2862 144.937 20.4791 144.359 20.8971C143.844 21.2829 143.587 21.7651 143.587 22.4724C143.587 23.0189 143.587 24.4656 146.834 24.4656H151.431V17.5535C151.431 14.7244 150.145 13.3741 147.381 13.3741H140.372V8.74463H147.573C150.306 8.74463 152.428 9.45191 153.939 10.8343C155.45 12.2168 156.222 14.2422 156.222 16.782V29.1273H146.738Z" fill="#131313"/>
<path d="M169.146 29.1273C166.092 29.1273 163.552 28.1306 161.655 26.1695C159.726 24.2084 158.762 21.7008 158.762 18.743C158.762 15.8175 159.758 13.342 161.752 11.3487C163.745 9.35545 166.124 8.35882 168.857 8.35882C170.593 8.35882 172.264 8.77676 173.775 9.64479L174.097 9.83769V15.0459L173.068 14.3064C171.846 13.4384 170.432 12.9883 168.824 12.9883C167.41 12.9883 166.253 13.5027 165.256 14.5636C164.259 15.6246 163.777 17.007 163.777 18.743C163.777 20.5113 164.259 21.9258 165.192 22.9546C166.124 23.9834 167.41 24.4978 169.114 24.4978H174.258V0H179.112V29.1273H169.146Z" fill="#131313"/>
<path d="M192.583 29.5131C189.4 29.5131 186.828 28.5486 184.899 26.6518C182.97 24.755 182.006 22.2795 182.006 19.3217C182.006 16.0425 182.97 13.342 184.835 11.2844C186.635 9.32329 189.079 8.32666 192.101 8.32666C192.261 8.32666 192.422 8.32666 192.583 8.32666C198.691 8.58385 199.977 11.8631 199.977 14.5636C199.977 19.386 196.827 21.8615 190.622 21.8615H188.339V17.5214H190.879C192.904 17.5214 193.773 17.1677 194.19 16.8462C194.705 16.4283 194.994 15.6889 194.994 14.6279C194.994 14.0171 194.801 13.5991 194.351 13.3098C193.837 12.9883 193.194 12.7954 192.358 12.7954C190.654 12.7954 189.368 13.3741 188.436 14.5315C187.439 15.7531 186.957 17.1677 186.957 18.9038C186.957 20.7041 187.471 22.1187 188.5 23.2439C189.529 24.337 190.847 24.8836 192.551 24.8836C194.062 24.8836 195.316 24.5299 196.248 23.7905L196.698 23.4368L200.042 26.6839L199.495 27.134C197.534 28.7093 195.219 29.5131 192.583 29.5131Z" fill="#131313"/>
<path d="M224.186 29.1273V17.3285C224.186 15.496 223.671 14.3386 222.642 13.7921C222.257 13.5992 221.356 13.342 219.074 13.342H218.077V29.0951H213.287V13.342H207.629V29.0951H202.838V8.74463H221.003C222.996 8.74463 224.636 9.13042 225.857 9.93415C227.111 10.7379 227.979 11.7667 228.365 13.0526C228.751 14.2422 228.944 15.6889 228.944 17.3285V29.0951H224.186V29.1273Z" fill="#131313"/>
<path d="M234.152 29.1273V13.3741H230.519L232.737 8.7446H238.942V29.1273H234.152ZM236.209 6.68704C235.277 6.68704 234.602 6.3977 234.12 5.81901C233.67 5.24033 233.445 4.62949 233.445 3.95435C233.445 3.27922 233.67 2.66838 234.088 2.08969C234.57 1.47886 235.277 1.18951 236.177 1.18951C237.11 1.18951 237.817 1.47886 238.267 2.08969C238.717 2.63623 238.91 3.27922 238.91 3.95435C238.91 4.62949 238.685 5.24033 238.267 5.81901C237.849 6.3977 237.142 6.68704 236.209 6.68704Z" fill="#131313"/>
<path d="M252.767 29.5131C249.648 29.5131 247.108 28.4843 245.211 26.4589C243.315 24.4656 242.382 21.9258 242.382 18.9359C242.382 15.9782 243.379 13.4706 245.372 11.4452C247.365 9.3876 249.841 8.35883 252.767 8.35883C255.274 8.35883 257.525 9.16256 259.454 10.7379L260 11.188L256.753 14.4672L256.303 14.1136C255.306 13.342 254.149 12.9883 252.767 12.9883C251.127 12.9883 249.841 13.5027 248.909 14.5958C247.944 15.6889 247.462 17.1356 247.462 18.9681C247.462 20.8006 247.944 22.2473 248.909 23.3404C249.873 24.4013 251.127 24.9479 252.767 24.9479C254.181 24.9479 255.306 24.5942 256.271 23.8548L256.721 23.5011L260 26.6839L259.454 27.134C257.492 28.7093 255.242 29.5131 252.767 29.5131Z" fill="#131313"/>
<path d="M47.4604 4.14725V0.642975H64.9497V4.14725H58.0697V28.4843H54.3404V4.14725H47.4604Z" fill="#131313"/>
<path d="M67.7466 28.4843V17.6178C67.7466 14.5636 68.3253 12.4739 69.4505 11.2844C69.997 10.7057 70.6722 10.2556 71.4759 9.96629C72.2796 9.67695 72.9548 9.5162 73.5656 9.4519C74.1764 9.3876 74.9802 9.3876 76.009 9.3876H79.5132V12.7311H75.3017C74.7551 12.7311 74.3693 12.7311 74.08 12.7633C73.7906 12.7954 73.437 12.8919 73.0512 13.0526C72.6654 13.2134 72.3118 13.4706 72.0224 13.8242C71.5081 14.4672 71.2509 15.721 71.2509 17.65V28.5164H67.7466V28.4843Z" fill="#131313"/>
<path d="M92.7269 17.2642V20.8328C91.7302 20.0612 90.4764 19.6754 89.0297 19.6754C87.7759 19.6754 86.8114 19.9326 86.1363 20.4148C85.4611 20.8971 85.1075 21.6043 85.1075 22.5045C85.1075 24.2406 86.3935 25.1408 88.9975 25.1408H94.2379V17.5535C94.2379 14.3386 92.6626 12.7311 89.5441 12.7311H83.1785V9.3876H89.737C92.3089 9.3876 94.27 10.0306 95.6525 11.2844C97.0349 12.5704 97.71 14.3707 97.71 16.7819V28.4843H88.8368C86.5863 28.4843 84.786 27.9699 83.4679 26.9733C82.1497 25.9766 81.4746 24.4978 81.4746 22.5688C81.4746 20.6399 82.1819 19.161 83.5965 18.1644C85.011 17.1677 86.7792 16.6533 88.8689 16.6533C90.0906 16.6212 91.3444 16.8462 92.7269 17.2642Z" fill="#131313"/>
<path d="M115.135 24.3049L117.514 26.6518C115.681 28.1306 113.592 28.8701 111.245 28.8701C108.287 28.8701 105.94 27.9377 104.172 26.0409C102.404 24.1441 101.503 21.7651 101.503 18.9359C101.503 16.1389 102.436 13.792 104.3 11.8631C106.165 9.93411 108.48 8.96964 111.245 8.96964C113.592 8.96964 115.713 9.70907 117.514 11.1879L115.167 13.567C114.042 12.7311 112.756 12.281 111.245 12.281C109.412 12.281 107.965 12.8918 106.904 14.0814C105.844 15.303 105.297 16.8784 105.297 18.8716C105.297 20.8649 105.844 22.4723 106.904 23.6619C107.965 24.8835 109.444 25.4622 111.245 25.4622C112.788 25.5265 114.074 25.1086 115.135 24.3049Z" fill="#131313"/>
<path d="M131.885 9.38759H135.743L130.92 17.7143C134.167 18.5823 135.807 21.2185 135.807 25.623V28.4843H132.303V25.5908C132.303 23.8226 131.788 22.4402 130.727 21.4757C129.666 20.5112 128.188 20.029 126.259 20.029C125.648 20.029 125.037 20.0612 124.394 20.1576V28.5164H120.89V0.642975H124.394V16.9748C125.519 16.8141 126.612 16.8141 127.737 16.9748L131.885 9.38759Z" fill="#131313"/>
<path d="M150.596 17.2642V20.8328C149.599 20.0612 148.345 19.6754 146.898 19.6754C145.645 19.6754 144.68 19.9326 144.005 20.4148C143.33 20.8971 142.976 21.6043 142.976 22.5045C142.976 24.2406 144.262 25.1408 146.866 25.1408H152.107V17.5535C152.107 14.3386 150.531 12.7311 147.413 12.7311H141.047V9.3876H147.606C150.178 9.3876 152.139 10.0306 153.521 11.2844C154.904 12.5704 155.579 14.3707 155.579 16.7819V28.4843H146.705C144.455 28.4843 142.655 27.9699 141.337 26.9733C140.018 25.9766 139.343 24.4978 139.343 22.5688C139.343 20.6399 140.051 19.161 141.465 18.1644C142.88 17.1677 144.648 16.6533 146.77 16.6533C147.991 16.6212 149.245 16.8462 150.596 17.2642Z" fill="#131313"/>
<path d="M174.901 0.642975H178.469V28.4843H169.114C166.22 28.4843 163.873 27.5519 162.073 25.7194C160.273 23.8869 159.373 21.54 159.373 18.743C159.373 15.9782 160.305 13.6634 162.17 11.7988C164.034 9.93412 166.252 9.00179 168.824 9.00179C170.464 9.00179 172.007 9.38759 173.422 10.1913V13.7599C172.104 12.7954 170.561 12.3132 168.824 12.3132C167.249 12.3132 165.899 12.8919 164.774 14.0814C163.681 15.2709 163.134 16.8141 163.134 18.7109C163.134 20.6398 163.648 22.183 164.709 23.3725C165.77 24.5299 167.217 25.1086 169.114 25.1086H174.901V0.642975Z" fill="#131313"/>
<path d="M192.582 9.00182C197.083 9.19471 199.334 11.0594 199.334 14.5958C199.334 19.0324 196.44 21.2507 190.621 21.2507H188.982V18.1965H190.879C192.647 18.1965 193.901 17.9393 194.576 17.3928C195.251 16.8462 195.604 15.9461 195.604 14.6601C195.604 13.8242 195.315 13.2134 194.704 12.7954C194.093 12.3775 193.322 12.1846 192.357 12.1846C190.461 12.1846 188.982 12.8597 187.921 14.1779C186.86 15.496 186.313 17.1034 186.313 18.936C186.313 20.8971 186.892 22.5045 188.049 23.694C189.207 24.9157 190.718 25.5266 192.55 25.5266C194.222 25.5266 195.572 25.1086 196.633 24.3049L199.012 26.6518C197.18 28.1307 195.026 28.8701 192.518 28.8701C189.496 28.8701 187.085 27.9699 185.285 26.2017C183.484 24.4335 182.584 22.1187 182.584 19.3217C182.584 16.2033 183.484 13.6635 185.252 11.7345C187.085 9.80555 189.528 8.87322 192.582 9.00182Z" fill="#131313"/>
<path d="M203.545 9.3876H221.067C222.964 9.3876 224.442 9.74125 225.568 10.4485C226.693 11.1558 227.464 12.0881 227.818 13.2455C228.172 14.3707 228.365 15.7532 228.365 17.3285V28.4521H224.86V17.3285C224.86 15.2709 224.25 13.8885 222.996 13.2455C222.353 12.8919 221.067 12.7311 219.138 12.7311H217.498V28.4843H213.994V12.7311H207.05V28.4843H203.545V9.3876Z" fill="#131313"/>
<path d="M238.299 28.4843H234.794V12.7311H231.547L233.123 9.38758H238.299V28.4843ZM234.634 5.40106C234.28 4.95097 234.119 4.46873 234.119 3.92219C234.119 3.4078 234.28 2.89342 234.634 2.47548C234.987 2.02538 235.502 1.83249 236.209 1.83249C236.916 1.83249 237.463 2.05753 237.784 2.47548C238.138 2.92557 238.299 3.4078 238.299 3.92219C238.299 4.46873 238.138 4.95097 237.784 5.36891C237.431 5.819 236.916 6.0119 236.209 6.0119C235.502 6.0119 234.955 5.85115 234.634 5.40106Z" fill="#131313"/>
<path d="M256.656 24.3049L259.035 26.6518C257.203 28.1306 255.113 28.8701 252.766 28.8701C249.808 28.8701 247.462 27.9377 245.693 26.0409C243.925 24.1441 243.025 21.7651 243.025 18.9359C243.025 16.1389 243.957 13.792 245.822 11.8631C247.687 9.93411 250.001 8.96964 252.766 8.96964C255.113 8.96964 257.235 9.70907 259.035 11.1879L256.688 13.567C255.563 12.7311 254.277 12.281 252.766 12.281C250.934 12.281 249.487 12.8918 248.426 14.0814C247.365 15.303 246.819 16.8784 246.819 18.8716C246.819 20.8649 247.365 22.4723 248.426 23.6619C249.487 24.8835 250.966 25.4622 252.766 25.4622C254.309 25.5265 255.595 25.1086 256.656 24.3049Z" fill="#131313"/>
<path fill-rule="evenodd" clip-rule="evenodd" d="M24.4978 9.09825C27.0054 9.09825 29.0308 7.07285 29.0308 4.5652C29.0308 2.02541 27.0054 0 24.4978 0C22.6653 0 21.0578 1.09308 20.3505 2.66839C20.0612 3.21493 19.9326 3.89007 19.9326 4.5652C19.9326 5.24034 20.0612 5.85117 20.3505 6.46201C21.0578 8.00518 22.6653 9.09825 24.4978 9.09825ZM29.9632 27.1019C30.574 25.5266 30.9598 24.0155 31.5706 22.3438C29.5131 22.3438 28.2914 22.2795 26.266 22.3438C24.6585 22.3438 23.9512 23.2761 23.4368 24.4013C22.4081 27.0697 21.4114 29.7703 20.3827 32.4387C19.8683 33.8211 19.3217 35.2356 18.8073 36.6502H24.4013C25.5265 33.371 26.6196 30.2846 27.9377 27.1019H29.9632ZM42.3728 20.7363C42.212 20.3827 42.0513 20.029 41.8905 19.6754C41.7941 19.4825 41.2476 18.7752 41.3119 18.5501C41.7298 16.364 42.212 14.1778 42.63 11.9917C42.9836 10.2878 42.2442 9.1947 41.2476 8.77676C39.8973 8.23022 39.0936 7.87658 37.8076 7.33004C37.261 7.07285 36.6824 6.8478 36.0715 6.59061C34.3355 5.75473 33.1781 5.52968 31.4742 6.68706C28.2271 8.71246 24.6264 11.0594 21.4114 13.1169C21.8294 11.9917 22.5045 10.6093 22.9225 9.48405C22.0544 9.16255 21.2828 8.80891 20.3827 8.45527C20.2541 8.39097 20.0933 8.35882 19.9647 8.29452L19.9004 8.45527C18.9038 10.5771 17.5857 13.1491 16.8141 15.2388C16.2997 16.8462 18.0358 18.1001 19.6111 17.5857C19.6432 17.5857 24.5621 15.3352 26.5553 14.4672C28.8058 17.0391 31.0241 19.6432 33.2745 22.183C32.1493 22.8903 31.8921 23.0832 31.3777 24.6907L27.1983 36.5859H33.0495L36.393 27.1662C36.7467 27.1983 37.4218 27.2626 37.8076 27.2626C38.9328 27.2626 39.9937 27.2948 41.0225 26.7482C43.1444 25.5908 43.1765 22.7296 42.3728 20.7363ZM40.2188 21.2507H36.7145L37.8076 15.4638L37.9683 14.5958L37.8076 14.3386L35.3321 10.8343L37.8076 11.4452L39.0936 11.7345L37.4539 20.7685H40.2188V21.2507ZM18.0679 21.9901C18.8073 22.0866 19.5789 22.2473 20.3505 22.3759C20.672 22.4402 20.9935 22.4724 21.315 22.5367L22.3759 19.0002C21.6365 18.8395 7.49079 16.0104 1.02878 14.7244L0 18.1001C1.28597 18.3894 2.2826 18.6466 3.56857 18.9681C3.18278 19.2253 2.82914 19.4825 2.44335 19.7397C3.27923 20.672 4.08296 21.6365 4.95099 22.601C6.39771 21.1221 8.06947 20.447 9.99843 20.6399C13.4384 21.1864 15.9782 23.1475 15.9139 27.134C15.9782 30.8633 12.3453 33.4674 9.58049 33.5639C7.84443 33.5317 6.23696 32.5351 4.8224 31.6028C3.95436 32.2779 3.05418 32.953 2.18615 33.5639C3.72932 35.5893 5.97977 36.9717 9.80554 36.9396C16.0425 36.2966 18.8395 32.5351 19.4182 27.3269C19.6754 25.0765 19.0002 23.6619 18.0679 21.9901Z" fill="#414DED"/>
<path d="M136.45 36.9395H35.9834L37.8481 31.442H136.45V36.9395Z" fill="#414DED"/>
</svg>
